<svg width="543" height="270" viewBox="0 0 543 270" fill="none" xmlns="http://www.w3.org/2000/svg">
<g style="mix-blend-mode:soft-light">
<path d="M-48.776 266.637C-46.8955 226.211 -20.8599 196.731 0.0640221 173.045L1.54723 171.367C3.9707 168.837 9.57247 162.074 9.13545 153.907C8.87059 148.926 6.38092 144.43 1.74588 140.524C-1.04839 138.191 -3.55131 136.002 -6.06747 133.97C-16.4459 124.839 -27.3451 116.305 -38.7114 108.409C-43.5583 105.08 -48.3258 101.855 -52.9873 98.9717V99.4304C-48.4052 102.354 -43.7172 105.447 -38.9365 108.724C-27.5807 116.617 -16.6904 125.147 -6.31909 134.272C-3.86914 136.356 -1.3 138.545 1.48102 140.826C6.0366 144.653 8.4733 149.071 8.73817 153.934C9.17518 161.903 3.65287 168.602 1.30886 171.079L-0.187595 172.77C-21.2042 196.522 -47.2928 226.054 -49.1733 266.623C-49.3852 270.936 -51.0803 273.584 -52.9873 274.488V274.96C-50.9214 274.108 -49.0144 271.434 -48.776 266.637Z" fill="url(#paint0_linear_371_110)"/>
<path d="M-39.5192 267.056C-37.7844 229.829 -12.9273 201.7 7.04307 179.088L8.53952 177.397C12.1224 173.407 15.4907 169.233 18.6307 164.892C21.7428 160.488 27.5299 152.295 13.8632 139.253C-0.829193 125.199 -16.6441 112.342 -33.4274 100.807C-40.2167 96.1581 -46.7366 91.946 -52.9873 88.1709V88.6297C-46.8073 92.3786 -40.3623 96.5469 -33.6526 101.135C-16.8902 112.656 -1.09316 125.495 13.5851 139.528C27.0002 152.348 21.3455 160.357 18.3128 164.669C15.1737 168.999 11.8098 173.164 8.23494 177.148L6.73848 178.839C-13.2584 201.49 -38.1817 229.685 -39.9165 267.043C-40.7243 284.372 -43.8894 294.452 -49.703 298.778C-50.6473 299.539 -51.7823 300.033 -52.9873 300.206L-52.9873 300.613C-51.6944 300.436 -50.4757 299.909 -49.4647 299.092C-43.4921 294.701 -40.3403 284.516 -39.5192 267.056Z" fill="url(#paint1_linear_371_110)"/>
<path d="M122.124 0.792488C119.542 -9.27448 98.7771 -11.9616 74.7411 -15.0551C68.795 -15.8154 62.6503 -16.615 56.691 -17.5456C30.3242 -21.6616 6.19552 -34.7696 -17.1386 -47.432C-28.8321 -53.8025 -40.764 -60.2778 -52.9873 -65.6128V-64.6035C-40.9362 -59.3603 -29.15 -52.9242 -17.5889 -46.6586C5.81147 -33.9438 30.0858 -20.8095 56.5718 -16.6674C62.5444 -15.7367 68.7023 -14.9371 74.6484 -14.1638C97.3601 -11.2276 118.827 -8.44867 121.25 1.01534C123.131 8.38205 113.437 19.5632 91.6127 35.188C60.9022 57.1046 35.2506 67.3158 10.6981 67.3158C-3.65191 67.2327 -17.7719 63.7398 -30.4743 57.1308C-38.3819 52.9365 -45.9135 48.082 -52.9873 42.6202L-52.9873 43.7737C-46.0196 49.1038 -38.6079 53.8397 -30.8318 57.9304C-18.0195 64.5994 -3.77749 68.1282 10.6981 68.2202C35.4492 68.2202 61.326 57.9566 92.1159 35.9089C114.602 19.8385 124.137 8.67042 122.124 0.792488Z" fill="url(#paint2_linear_371_110)"/>
<path d="M-17.2313 178.826L-15.4435 176.729C-6.91502 166.806 1.9048 156.542 -8.12012 144.26C-15.8673 134.77 -27.5608 126.944 -37.8771 120.036C-39.9827 118.647 -41.9956 117.257 -43.9821 115.894C-45.3064 114.977 -47.1339 113.666 -49.2793 112.158L-52.9873 109.471V109.956L-49.4647 112.499C-47.359 114.02 -45.4918 115.317 -44.1675 116.235C-42.1678 117.611 -40.1946 118.961 -38.0095 120.39C-27.7197 127.285 -16.0394 135.097 -8.33201 144.535C1.48103 156.555 -7.23285 166.701 -15.6421 176.506C-16.2513 177.2 -16.8605 177.908 -17.4432 178.603C-24.846 187.333 -34.3015 199.038 -41.7838 212.055C-46.3201 219.911 -50.0723 228.186 -52.9873 236.763L-52.9873 238.074C-50.0612 229.095 -46.2093 220.437 -41.4924 212.238C-34.0366 199.235 -24.5944 187.556 -17.2313 178.826Z" fill="url(#paint3_linear_371_110)"/>
<path d="M-24.7401 46.1592C-14.6754 51.2713 -6.12044 53.6439 2.16966 53.6439C10.857 53.6439 18.5777 51.0223 27.5167 48.073C32.5888 46.382 38.3362 44.4552 44.865 42.8298C47.5051 42.1976 50.2138 41.8894 52.93 41.9122C54.2543 41.9122 55.4064 41.9122 56.5718 42.0171C57.7372 42.1219 58.7304 42.0957 59.7766 42.0957C65.0738 42.0957 69.4042 40.7849 74.079 34.5848C76.4234 31.4588 78.2352 27.9741 79.4424 24.2688C81.0051 19.9694 82.2366 16.5744 89.0965 11.7113C91.2182 10.4023 93.4842 9.33801 95.8504 8.53915C99.8233 7.00552 103.161 5.68161 103.306 3.45324C103.412 1.64434 101.28 -0.387417 96.592 -2.90416C90.977 -5.93211 82.9518 -6.33846 75.8403 -6.33846C72.6752 -6.33846 69.3512 -6.2467 66.1332 -6.14183C62.9152 -6.03697 59.5117 -5.95832 56.3466 -5.95832C50.8948 -5.79206 45.4446 -6.33858 40.1372 -7.58373C17.0945 -13.7445 -4.51804 -25.5417 -23.5747 -35.8577C-33.5864 -41.2714 -43.2935 -46.5146 -52.9873 -51.0762V-50.3421C-43.3994 -45.8592 -33.7982 -40.6553 -23.8528 -35.281C-4.75641 -24.9125 16.8826 -13.1677 40.0048 -6.94143C45.3719 -5.70578 50.8788 -5.16819 56.3864 -5.34224C59.6044 -5.34224 63.0079 -5.43401 66.1862 -5.52577C69.3645 -5.61752 72.7282 -5.72238 75.88 -5.72238C82.912 -5.72238 90.8181 -5.32914 96.3139 -2.37984C100.631 -0.046608 102.776 1.88027 102.684 3.37459C102.565 5.19661 99.2009 6.4943 95.6385 7.88375C93.2102 8.70875 90.8861 9.80836 88.7125 11.1608C81.6804 16.1287 80.3561 19.7858 78.82 24.0197C77.6241 27.6807 75.835 31.1249 73.5228 34.2178C69.0069 40.2475 64.9016 41.4534 59.7501 41.4534C58.7171 41.4534 57.6842 41.4534 56.5718 41.3748C55.4594 41.2961 54.2013 41.3092 52.9564 41.3092C50.1818 41.2845 47.4148 41.6015 44.7193 42.253C38.1773 43.8784 32.4166 45.8053 27.3313 47.4962C18.4453 50.4586 10.7776 53.0278 2.16966 53.0278C-6.01449 53.0278 -14.4635 50.6684 -24.4355 45.6218C-33.5466 40.9553 -41.744 34.7552 -49.6766 28.8566L-52.9873 26.3792V27.205L-50.0739 29.3809C-42.1281 35.3451 -33.9042 41.519 -24.7401 46.1592Z" fill="url(#paint4_linear_371_110)"/>
<path d="M-18.635 34.3745C-9.6075 39.1548 0.460148 41.6877 10.6981 41.7543C16.2734 41.7543 28.298 39.5128 38.7997 35.7377C47.9903 32.4345 58.9555 26.9553 58.9688 19.5886C58.9688 10.9111 42.0707 6.08736 31.9531 3.20359C29.7548 2.57441 27.8478 2.03698 26.6559 1.5782C7.1121 -5.54001 -11.8353 -14.1699 -30.0108 -24.2315C-37.8241 -28.4916 -45.4653 -32.6338 -52.9873 -36.3564V-35.9108C-45.5315 -32.2143 -37.9565 -28.046 -30.1962 -23.9038C-12.0219 -13.8177 6.92533 -5.16154 26.4705 1.98455C27.7948 2.45644 29.6621 2.99387 31.8736 3.62305C41.8853 6.46749 58.6377 11.2388 58.6112 19.628C58.6112 32.369 22.2725 41.4004 10.7114 41.4004C0.54417 41.3254 -9.45301 38.8111 -18.4232 34.073C-26.5146 29.9702 -34.2353 24.1633 -41.7175 18.5531C-45.3329 15.8397 -49.0541 13.0477 -52.9476 10.3344V10.8194C-49.1468 13.441 -45.505 16.2068 -41.9559 18.8677C-34.4471 24.4517 -26.7662 30.2586 -18.635 34.3745Z" fill="url(#paint5_linear_371_110)"/>
<path d="M-14.4105 26.2085C-6.67116 30.3248 1.96542 32.5115 10.7511 32.579C18.0877 32.579 27.6889 30.4293 31.3704 25.6973C32.1614 24.6951 32.6951 23.5181 32.9258 22.267C33.1564 21.0159 33.0771 19.7282 32.6947 18.5141C31.0261 12.1567 17.5712 7.67374 7.75819 4.38363C4.57988 3.32188 1.83858 2.40432 0.156727 1.63094C-11.1925 -3.61227 -22.3563 -9.66818 -33.2818 -15.5668L-34.4869 -16.2222C-40.7905 -19.6303 -46.9353 -22.9204 -52.9873 -26.0532V-25.6207C-47.0015 -22.5534 -40.923 -19.2502 -34.712 -15.8814L-33.4937 -15.226C-22.6344 -9.32737 -11.3911 -3.25836 -0.0154305 1.98486C1.69291 2.75823 4.44745 3.67579 7.62576 4.75065C16.8164 7.81793 30.695 12.4582 32.3107 18.6058C32.6624 19.7655 32.7257 20.9922 32.4951 22.1813C32.2645 23.3704 31.7469 24.4867 30.9864 25.4351C27.3975 30.0754 17.942 32.1333 10.6716 32.1333C1.97444 32.0511 -6.57299 29.8831 -14.2384 25.8153C-21.6015 22.1319 -29.0043 16.5741 -36.1555 11.1605C-41.3335 7.31982 -46.8955 3.15147 -52.9873 -0.780939V-0.30905C-46.9882 3.62336 -41.5057 7.68685 -36.3939 11.4882C-29.2294 16.9018 -21.8134 22.4596 -14.4105 26.2085Z" fill="url(#paint6_linear_371_110)"/>
<path d="M182.05 -108.122C182.712 -110.744 183.374 -113.366 183.97 -115.987H183.281C182.685 -113.444 182.05 -110.888 181.401 -108.293C180.182 -103.43 178.924 -98.4094 177.905 -93.2711C174.514 -76.1651 171.588 -53.7504 179.229 -31.9779C182.301 -23.13 189.956 -15.9075 196.71 -9.53699C202.735 -3.86121 207.927 1.04119 207.45 5.15711C207.238 7.05778 205.847 8.7356 203.186 10.3086C201.229 11.174 199.086 11.5477 196.948 11.3965C186.777 11.3965 168.847 6.95291 155.577 2.54861C141.076 -2.23582 123.304 -9.81226 120.496 -18.9879C119.609 -21.8979 120.337 -24.8341 122.642 -27.7309C125.528 -31.2541 128.591 -34.6315 131.819 -37.8503C137.845 -44.0504 143.539 -49.9097 147.3 -58.6003C152.668 -70.751 153.36 -84.4252 149.247 -97.0462C148.254 -100.218 147.26 -103.141 146.373 -105.724C145.049 -109.538 143.95 -112.868 143.168 -115.961H142.48C143.261 -112.802 144.426 -109.407 145.751 -105.475C146.625 -102.853 147.618 -99.9824 148.611 -96.8103C152.687 -84.3328 152.004 -70.8097 146.691 -58.797C142.983 -50.2112 137.328 -44.3781 131.342 -38.2305C128.27 -35.0714 125.092 -31.7944 122.072 -28.0717C119.636 -25.0045 118.868 -21.8585 119.821 -18.7257C122.655 -9.31416 140.626 -1.5673 155.206 3.26956C168.529 7.68697 186.539 12.1437 196.789 12.1437C199.062 12.3107 201.34 11.9048 203.411 10.964C206.271 9.28614 207.768 7.43791 208.006 5.32752C208.509 0.883896 203.212 -4.12337 197.067 -9.91712C190.366 -16.2352 182.765 -23.4053 179.745 -32.0959C172.237 -53.7242 175.137 -76.034 178.514 -93.0614C179.573 -98.2652 180.831 -103.286 182.05 -108.122Z" fill="url(#paint7_linear_371_110)"/>
<path d="M72.3312 198.448C71.6691 199.523 71.007 200.558 70.5037 201.305C63.8028 210.651 55.9365 218.936 46.9577 228.033C45.7526 229.252 44.521 230.497 43.2629 231.742C35.8998 239.109 28.2719 246.725 23.7163 255.73C21.955 259.23 21.412 261.956 22.1404 263.595C22.2904 263.954 22.5191 264.275 22.81 264.536C23.1009 264.796 23.4466 264.99 23.8223 265.102C24.1894 265.199 24.5679 265.248 24.9479 265.246C27.1959 265.036 29.3522 264.26 31.2118 262.992C36.0947 259.917 40.7868 256.556 45.2626 252.925C48.9839 250.054 52.8244 247.105 56.7443 244.483C72.6358 234.089 83.0845 227.22 87.9712 207.781C88.9909 203.757 89.5868 194.594 86.4483 190.622C85.9637 189.969 85.3194 189.448 84.5758 189.109C83.8323 188.77 83.0138 188.623 82.1973 188.682C78.1184 188.958 74.7812 194.437 72.3312 198.448ZM82.5018 189.141C83.2064 189.131 83.9033 189.287 84.5344 189.597C85.1656 189.907 85.7128 190.362 86.1304 190.924C89.1896 194.856 88.5936 203.796 87.5872 207.741C82.727 226.984 72.3048 233.826 56.5324 244.169C52.5595 246.79 48.772 249.74 45.0772 252.61C40.6134 256.237 35.9299 259.59 31.0529 262.651C28.0865 264.434 25.5571 265.181 23.9812 264.722C23.6497 264.632 23.3441 264.467 23.0888 264.24C22.8335 264.012 22.6357 263.728 22.5112 263.411C21.8358 261.891 22.392 259.204 24.0739 255.874C28.603 246.921 36.2044 239.332 43.5543 231.978L47.2358 228.269C56.1748 219.093 64.1206 210.861 70.8348 201.502C71.3778 200.729 72.0134 199.693 72.6756 198.605C75.0725 194.673 78.3436 189.298 82.2105 189.102L82.5018 189.141Z" fill="url(#paint8_linear_371_110)"/>
<path d="M-10.2522 18.1599C-5.38689 20.3513 -0.148972 21.6185 5.18906 21.8957C6.70218 21.9935 8.21244 21.6664 9.54599 20.952C11.6516 19.6412 12.5786 18.3304 12.38 17.0196C11.9562 14.2669 5.87769 12.6021 1.00428 11.252C-0.601227 10.8885 -2.1806 10.4199 -3.72346 9.84946C-15.3375 4.51449 -26.7133 -1.6594 -37.6917 -7.62355L-38.91 -8.27895C-43.7172 -10.8875 -48.3655 -13.4304 -52.9873 -15.8423V-15.0558C-48.4715 -12.6833 -43.8894 -10.1927 -39.2279 -7.66288L-38.0095 -7.00747C-27.0178 -1.09575 -15.6421 5.09124 -3.98832 10.4393C-2.41371 11.0503 -0.79871 11.554 0.845364 11.9467C5.28176 13.1789 11.4397 14.8436 11.7443 17.19C11.89 18.1468 11.0292 19.2348 9.20167 20.4014C7.98256 21.0429 6.60625 21.3336 5.22878 21.2403C-0.0140152 20.9542 -5.15869 19.7145 -9.94766 17.5832C-16.5691 14.2144 -23.6409 8.91878 -30.4743 3.79354C-37.678 -1.79847 -45.1942 -6.98435 -52.9873 -11.7395L-52.9873 -10.9661C-45.3332 -6.2772 -37.9457 -1.17483 -30.8583 4.31787C-24.0117 9.45621 -16.9267 14.7781 -10.2522 18.1599Z" fill="url(#paint9_linear_371_110)"/>
<path d="M-30.1299 267.489C-28.5408 233.513 -4.88885 206.733 14.1148 185.223L15.6113 183.519C38.217 157.919 37.3033 148.966 26.6956 138.611C9.8132 121.914 -8.50957 106.707 -28.064 93.165C-36.5395 87.3581 -44.9091 82.0363 -52.9873 77.3174V78.0777C-45.0415 82.7441 -36.7779 87.9742 -28.4481 93.7024C-8.9223 107.226 9.37385 122.41 26.2321 139.082C36.5352 149.136 37.3695 157.879 15.1213 183.099L13.6248 184.79C-5.45829 206.379 -29.2029 233.29 -30.7921 267.462C-32.2885 299.538 -44.4986 308.989 -52.9873 311.637V312.318C-44.2999 309.71 -31.6529 300.233 -30.1299 267.489Z" fill="url(#paint10_linear_371_110)"/>
<path d="M80.3168 176.624C74.5032 178.052 69.4311 186.009 65.339 192.353C63.922 194.595 62.5713 196.705 61.3661 198.213C54.7507 206.36 47.6766 214.133 40.1774 221.492C38.3101 223.393 35.9529 225.556 33.4632 227.837C26.0736 234.614 16.883 243.042 14.0887 250.763C11.7447 257.317 13.122 263.451 14.4595 269.442C15.5587 274.357 16.6976 279.43 15.7838 284.712C15.2276 287.99 13.228 291.267 11.1091 294.622C8.56643 298.712 5.94432 302.933 5.81189 307.481C5.7586 309.024 6.00126 310.563 6.52701 312.017C8.27508 316.866 10.1026 319.134 12.2745 319.134C14.4463 319.134 16.7638 316.919 20.2202 311.505C23.531 306.328 24.8288 300.337 26.0869 294.53C27.345 288.724 28.656 282.733 31.9932 277.49C38.3499 267.58 49.5534 260.266 59.4327 253.83L61.9091 252.205C78.3304 241.443 91.282 232.949 97.0692 210.049C98.6054 203.993 98.1948 188.552 91.9706 180.661C90.6915 178.874 88.8825 177.526 86.7943 176.802C84.7062 176.079 82.4424 176.017 80.3168 176.624ZM91.4806 181.12C97.0559 188.198 98.1021 203.154 96.46 209.957C90.739 232.608 77.9199 241.037 61.5648 251.733L59.1016 253.345C49.1561 259.82 37.9128 267.174 31.4635 277.202C28.0601 282.51 26.749 288.579 25.4645 294.465C24.1799 300.35 22.9351 306.092 19.6905 311.204C17.373 314.822 14.6847 318.531 12.3009 318.531C10.4734 318.531 8.79156 316.342 7.17592 311.846C6.66885 310.471 6.43939 309.01 6.50052 307.547C6.6462 303.182 9.22858 299.026 11.7183 295.015C13.8769 291.555 15.9163 288.278 16.499 284.87C17.4127 279.469 16.2606 274.318 15.1747 269.35C13.8504 263.176 12.5261 257.356 14.7774 250.999C17.5187 243.435 26.6961 235.059 33.9797 228.322C36.4826 226.041 38.8399 223.878 40.7204 221.964C48.2187 214.585 55.2927 206.796 61.9091 198.632C63.1142 197.098 64.465 194.962 65.882 192.72C69.8549 186.415 74.9005 178.577 80.4493 177.227C81.4016 176.987 82.3801 176.864 83.3627 176.86C84.9612 176.877 86.5323 177.272 87.9446 178.013C89.3569 178.755 90.5694 179.82 91.4806 181.12Z" fill="url(#paint11_linear_371_110)"/>
<path d="M86.4089 148.166C85.4751 146.62 84.1981 145.304 82.6747 144.319C81.1512 143.333 79.4212 142.703 77.6155 142.477C75.2819 142.137 73.0678 141.237 71.1662 139.856L70.9676 139.62C64.2137 132.135 41.5682 107.728 33.8873 107.728C33.4875 107.707 33.0886 107.782 32.7244 107.946C32.3602 108.111 32.0413 108.36 31.7949 108.672C30.7752 109.983 30.8281 112.604 31.9538 116.812C32.6292 119.289 39.0388 122.684 45.8324 126.302C51.4872 129.304 57.3406 132.41 59.327 134.744C61.1016 136.828 63.4456 139.725 63.2999 140.734C63.2999 141.009 62.9423 141.167 62.4259 141.416C61.234 142.005 59.4462 142.884 60.3997 147.026C61.3321 150.042 62.7448 152.892 64.5845 155.467C66.176 157.723 67.4377 160.19 68.3322 162.795C70.0273 169.244 59.3535 181.081 52.295 188.906C49.9642 191.528 47.9513 193.73 46.6667 195.46C41.2239 202.229 35.2932 208.598 28.9212 214.519C16.8568 226.316 4.38193 238.454 -0.00149488 255.246C-6.63622 280.308 -7.96052 302.474 -3.98763 321.087C-1.86875 331.023 5.44137 344.878 12.5264 344.878C16.9363 344.878 20.1543 339.635 22.0745 329.28C29.4906 289.392 49.7259 276.127 69.2857 263.294C86.6208 251.929 102.989 241.194 110.034 213.313C112.683 202.827 108.604 186.612 103.294 177.659C101.174 174.314 98.3673 171.447 95.0565 169.244C92.4084 167.491 90.1098 165.269 88.2761 162.69C86.9518 160.658 87.2035 158.286 87.4418 155.769C87.6802 153.252 88.0113 150.447 86.4089 148.166ZM87.5345 163.149C89.4145 165.838 91.7915 168.15 94.5401 169.965C97.7311 172.108 100.437 174.885 102.486 178.118C107.704 186.914 111.756 202.787 109.107 213.09C102.155 240.617 85.9321 251.274 68.7428 262.534C49.0902 275.471 28.696 288.855 21.174 329.11C19.373 338.823 16.3801 343.961 12.5396 343.961C6.51405 343.961 -0.796072 331.561 -3.07386 320.904C-7.04675 302.435 -5.72246 280.4 0.806327 255.442C5.12354 238.887 17.5057 226.814 29.4774 215.135C35.8952 209.19 41.866 202.79 47.3421 195.984C48.6002 194.333 50.5999 192.052 52.9174 189.548C60.5454 181.094 70.9808 169.506 69.1665 162.598C68.2546 159.897 66.952 157.34 65.2996 155.009C63.5207 152.514 62.1488 149.758 61.234 146.842C60.4527 143.408 61.6843 142.805 62.7702 142.268C63.3661 141.979 63.9885 141.665 64.0945 140.957C64.3064 140 63.6839 138.532 59.9892 134.193C57.8968 131.729 51.9639 128.57 46.2297 125.529C40.2042 122.33 33.384 118.699 32.8146 116.615C31.4903 111.87 31.9273 110.061 32.4968 109.275C32.6535 109.079 32.8557 108.922 33.0862 108.82C33.3167 108.717 33.5687 108.671 33.8211 108.685C39.6082 108.685 56.4136 125.004 70.2127 140.275L70.4908 140.564C72.5123 142.045 74.8658 143.021 77.3507 143.408C79.0374 143.6 80.6571 144.173 82.0852 145.082C83.5132 145.991 84.7115 147.212 85.5878 148.651C86.9121 150.657 86.7532 153.056 86.5016 155.599C86.25 158.141 86.0646 160.842 87.5345 163.214V163.149Z" fill="url(#paint12_linear_371_110)"/>
<path d="M-52.9873 63.0812C-8.33202 88.0914 39.7929 127.887 48.5598 147.667C53.857 159.543 41.0642 173.739 24.9211 191.71C6.60605 212.133 -16.2778 237.549 -17.6948 268.078C-19.4296 305.239 -38.0492 320.51 -52.9873 325.124V326.094C-37.7049 321.48 -18.5556 306.012 -16.7678 268.104C-15.364 237.955 7.36089 212.644 25.6097 192.326C41.978 174.106 54.9031 159.714 49.447 147.3C40.5743 127.376 -7.96122 87.1869 -52.9873 62.0981V63.0812Z" fill="url(#paint13_linear_371_110)"/>
<path d="M171.972 -115.909V-115.987H171.429C170.491 -115.088 169.728 -114.026 169.178 -112.854C167.535 -109.027 167.999 -104.99 168.449 -101.175C168.765 -99.0052 168.903 -96.8133 168.86 -94.6212C168.602 -91.1233 168.084 -87.649 167.31 -84.2265C166.754 -81.3952 166.171 -78.4721 165.893 -75.6146C164.264 -58.312 165.801 -42.5823 170.515 -29.0286C171.495 -26.2235 175.336 -21.8848 179.401 -17.2314C184.592 -11.3721 189.996 -5.28999 190.181 -1.60663C190.222 -1.24995 190.186 -0.888596 190.074 -0.547081C189.962 -0.205566 189.777 0.108109 189.532 0.372681C188.128 1.84077 184.367 2.11605 178.342 1.17227C173.965 0.27803 169.717 -1.14845 165.695 -3.07473C163.324 -4.09716 160.861 -5.15891 158.411 -5.9716L156.252 -6.73187C147.446 -9.60253 135.382 -13.548 133.66 -20.4429C132.839 -23.733 134.455 -27.495 138.467 -31.624C144.784 -38.178 151.313 -44.85 155.683 -55.0612C159.921 -64.8529 164.794 -83.8988 162.927 -94.2018C162.561 -95.9666 161.835 -97.6391 160.795 -99.1173C160.055 -100.066 159.518 -101.153 159.218 -102.314C158.917 -103.475 158.859 -104.684 159.047 -105.868C159.367 -107.642 160.111 -109.314 161.219 -110.744C161.818 -111.472 162.266 -112.31 162.537 -113.21C162.807 -114.11 162.895 -115.054 162.794 -115.987H162.397C162.496 -115.095 162.413 -114.193 162.154 -113.333C161.895 -112.473 161.464 -111.673 160.887 -110.98C159.767 -109.497 159.03 -107.764 158.742 -105.933C158.54 -104.71 158.594 -103.458 158.901 -102.256C159.209 -101.054 159.763 -99.9276 160.53 -98.9469C161.55 -97.5102 162.262 -95.8819 162.622 -94.1624C164.476 -83.9251 159.616 -64.984 155.392 -55.2447C150.995 -45.0991 144.479 -38.4009 138.176 -31.9255C134.057 -27.6916 132.415 -23.8116 133.276 -20.3773C135.05 -13.2597 147.234 -9.28793 156.12 -6.37795L158.279 -5.67011C160.702 -4.87052 163.152 -3.80878 165.523 -2.79946C169.57 -0.84893 173.851 0.586884 178.262 1.47375C180.27 1.81878 182.303 2.00724 184.341 2.03741C187.069 2.03741 188.857 1.55241 189.81 0.556198C190.09 0.252083 190.302 -0.107117 190.432 -0.497887C190.562 -0.888664 190.607 -1.30222 190.565 -1.71149C190.34 -5.52593 184.923 -11.6605 179.679 -17.5722C175.706 -22.1338 171.839 -26.4464 170.886 -29.1859C166.171 -42.7265 164.648 -58.3382 166.344 -75.6277C166.622 -78.459 167.191 -81.369 167.761 -84.2003C168.532 -87.6542 169.05 -91.1589 169.31 -94.6868C169.35 -96.8788 169.213 -99.0704 168.899 -101.241C168.436 -105.173 167.999 -108.975 169.601 -112.71C170.184 -113.913 170.988 -114.997 171.972 -115.909Z" fill="url(#paint14_linear_371_110)"/>
<path d="M75.5619 210.743H75.4692C73.5887 210.743 71.6817 213.116 70.2912 214.833C69.9866 215.213 69.7217 215.541 69.4834 215.803C68.1591 217.297 66.9142 218.857 65.6826 220.365C64.9013 221.348 64.1067 222.318 63.2989 223.288L63.193 223.393C60.5444 226.499 59.4717 228.518 59.8954 229.58C59.9921 229.796 60.1496 229.98 60.3492 230.111C60.5488 230.241 60.7821 230.311 61.0211 230.314H61.4051C66.7023 230.209 70.9931 225.451 73.0854 222.632C74.9391 220.268 76.2905 217.557 77.0583 214.663C77.3617 213.534 77.2491 212.335 76.7405 211.281C76.5974 211.109 76.4171 210.972 76.2131 210.879C76.0091 210.786 75.7865 210.74 75.5619 210.743ZM76.3432 214.545C75.6117 217.324 74.3188 219.928 72.5425 222.2C70.5296 224.926 66.411 229.514 61.3919 229.619V229.947V229.619H61.1535C60.6768 229.619 60.5973 229.37 60.5708 229.304C60.4252 228.937 60.4384 227.679 63.7624 223.786L63.8551 223.668C64.6762 222.698 65.4575 221.715 66.2521 220.732C67.4704 219.237 68.7285 217.678 70.0396 216.196C70.2779 215.934 70.556 215.593 70.8606 215.213C72.0922 213.68 73.9595 211.359 75.5884 211.359C75.7068 211.358 75.824 211.384 75.93 211.437C76.036 211.489 76.1277 211.566 76.1975 211.661C76.5987 212.573 76.6505 213.598 76.3432 214.545Z" fill="url(#paint15_linear_371_110)"/>
<path d="M215.276 343.541C232.849 341.562 251.694 321.415 251.933 304.348C252.303 278.132 237.114 257.277 222.414 237.065C219.911 233.644 217.329 230.091 214.892 226.578L213.435 224.481C206.509 214.624 198.669 203.508 196.127 191.37C193.968 181.133 190.671 157.289 194.259 149.084C196.908 143.067 204.39 139.62 211.634 136.277C216.64 133.983 221.381 131.807 224.705 128.819L224.851 128.688C236.213 118.49 236.213 118.49 243.96 118.201C246.304 118.123 249.257 118.031 253.336 117.638C257.103 117.312 260.837 116.68 264.5 115.75C265.668 115.406 266.872 115.195 268.089 115.121C270.473 115.121 272.472 116.786 279.081 122.33C298.614 138.702 298.243 167.173 297.886 194.713C297.435 229.357 296.972 265.195 336.595 276.533C341.948 278.109 347.498 278.934 353.082 278.984C367.981 278.984 380.654 272.43 389.752 259.938C403.101 241.666 406.65 213.13 398.585 188.945C379.952 133.131 335.429 101.213 287.53 70.8026C244.013 43.1578 202.549 35.542 167.111 30.574C164.708 30.2304 162.283 30.0509 159.854 30.0366C145.486 30.0366 138.665 37.2723 130.005 46.4217C126.531 50.2196 122.862 53.8378 119.013 57.262C114.139 61.4959 107.942 64.4059 101.956 67.211C92.1826 71.7857 82.9523 76.0982 79.1383 85.7064C71.0468 106.089 90.9245 121.963 108.471 135.976C116.589 142.53 124.257 148.599 128.746 154.72C146.571 178.996 141.235 219.933 125.078 242.937C120.033 250.107 110.365 258.995 100.142 268.393C83.1906 283.965 63.9751 301.622 60.5849 316.447C58.9825 323.434 59.4063 328.244 61.9092 331.338C63.9618 333.881 67.4183 335.113 72.5036 335.113C80.8334 335.113 92.7653 331.718 105.386 328.113C120.814 323.722 138.308 318.741 153.219 318.741C159.393 318.561 165.532 319.706 171.217 322.097C176.703 324.802 181.847 328.141 186.539 332.046C194.312 338.023 201.649 343.672 212.031 343.672C213.115 343.683 214.197 343.64 215.276 343.541ZM171.402 321.546C165.63 319.119 159.396 317.957 153.127 318.138C138.109 318.138 120.576 323.132 105.108 327.536C92.5269 331.128 80.648 334.51 72.4109 334.51C67.5772 334.51 64.2929 333.356 62.3727 330.984C60.0552 328.1 59.7241 323.421 61.2205 316.657C64.571 302.015 83.7336 284.437 100.592 268.93C110.842 259.506 120.536 250.579 125.621 243.357C141.91 220.182 147.273 178.891 129.289 154.379C124.747 148.192 117.04 142.032 108.882 135.517C91.5205 121.649 71.8017 105.932 79.7475 85.9948C83.4687 76.6357 92.5799 72.3624 102.261 67.8533C108.299 65.022 114.537 62.112 119.476 57.8125C123.336 54.3719 127.018 50.7407 130.508 46.9329C139.049 37.8883 145.803 30.7445 159.881 30.7445C162.279 30.752 164.673 30.9317 167.045 31.2819C202.417 36.2367 243.854 43.8394 287.212 71.4056C334.992 101.751 379.423 133.59 397.976 189.207C405.988 213.195 402.479 241.495 389.249 259.611C380.283 271.893 367.782 278.381 353.109 278.381C347.577 278.331 342.081 277.51 336.78 275.943C319.22 270.91 308.122 260.594 302.825 244.392C298.098 229.869 298.323 212.015 298.548 194.752C298.905 167.068 299.276 138.388 279.504 121.871C270.049 113.941 269.797 113.823 264.341 115.16C260.714 116.085 257.015 116.712 253.283 117.035C249.178 117.415 246.278 117.507 243.947 117.585C236.001 117.86 236.001 117.86 224.414 128.216L224.255 128.347C221.01 131.257 216.309 133.42 211.356 135.7C203.993 139.082 196.378 142.595 193.65 148.808C189.995 157.185 193.306 181.172 195.478 191.475C198.047 203.679 205.926 214.912 212.892 224.835L214.349 226.919C216.786 230.419 219.368 233.971 221.871 237.406C236.438 257.527 251.641 278.342 251.27 304.257C251.032 321.048 232.492 340.854 215.197 342.807C214.115 342.926 213.027 342.987 211.939 342.991C201.781 342.991 194.524 337.42 186.857 331.508C182.116 327.943 177.216 324.168 171.402 321.546Z" fill="url(#paint16_linear_371_110)"/>
<path d="M524.923 141.691C524.261 141.206 523.214 140.315 521.903 139.174C516.858 134.836 508.422 127.547 502.489 127.547C501.391 127.521 500.311 127.824 499.389 128.416C498.468 129.007 497.748 129.861 497.324 130.864C495.934 133.63 498.98 140.039 500.993 144.247C501.483 145.283 501.906 146.174 502.171 146.869C502.714 148.179 503.204 149.412 503.628 150.487C506.679 158.001 509.309 165.677 511.508 173.478C511.733 174.33 511.945 175.287 512.183 176.309C513.163 180.674 514.395 186.101 517.48 188.762C518.462 189.676 519.632 190.369 520.91 190.794C521.387 190.937 521.882 191.012 522.38 191.017C525.982 191.017 528.459 186.966 530.856 183.047C531.399 182.156 531.968 181.238 532.524 180.425L533.067 179.613C542.192 165.862 547.701 157.565 530.922 146.03C529.253 144.863 527.134 143.29 524.923 141.691ZM532.471 179.167L531.942 179.966C531.372 180.832 530.803 181.762 530.246 182.654C527.955 186.416 525.572 190.309 522.301 190.309C521.852 190.309 521.405 190.243 520.976 190.112C519.792 189.711 518.708 189.063 517.798 188.211C514.911 185.695 513.706 180.347 512.739 176.126C512.514 175.09 512.289 174.12 512.064 173.255C509.854 165.428 507.201 157.73 504.118 150.198C503.694 149.123 503.191 147.891 502.648 146.58C502.37 145.912 501.946 145.007 501.456 143.959C499.615 140.092 496.543 133.616 497.788 131.139C498.155 130.245 498.789 129.483 499.606 128.956C500.422 128.429 501.382 128.162 502.357 128.19C508.051 128.19 516.368 135.373 521.334 139.659C522.658 140.8 523.704 141.704 524.406 142.281C526.618 143.88 528.737 145.401 530.379 146.528C546.747 157.644 541.371 165.744 532.471 179.167Z" fill="url(#paint17_linear_371_110)"/>
<path d="M535.782 126.983C532.855 124.872 529.942 122.513 526.856 120.009C517.414 112.38 506.714 103.742 497.099 103.742C495.22 103.74 493.357 104.083 491.603 104.751C474.626 111.096 477.036 128.87 480.016 138.832C481.83 144.954 484.174 151.023 486.439 156.882C489.245 163.776 491.667 170.817 493.696 177.973C494.744 182.363 495.505 186.816 495.974 191.304C497.682 204.871 499.298 217.677 517.573 217.677C519.016 217.677 520.579 217.599 522.208 217.441C524.005 217.298 525.781 216.964 527.505 216.445C532.365 214.898 533.822 211.988 536.02 207.571C536.683 206.26 537.437 204.713 538.378 203.088C539.78 200.646 541.305 198.275 542.946 195.983V195.302C541.163 197.765 539.506 200.316 537.98 202.944C537.04 204.582 536.285 206.103 535.61 207.44C533.451 211.765 532.034 214.623 527.333 216.13C525.65 216.631 523.919 216.956 522.168 217.1C520.553 217.258 519.003 217.336 517.573 217.336C499.642 217.336 498.132 205.277 496.384 191.304C495.916 186.798 495.151 182.327 494.093 177.921C492.054 170.753 489.627 163.7 486.823 156.79C484.558 150.931 482.214 144.888 480.413 138.78C477.486 128.87 475.116 111.345 491.749 105.105C493.46 104.451 495.279 104.118 497.113 104.122C506.595 104.122 517.229 112.721 526.618 120.311C529.704 122.801 532.63 125.161 535.557 127.284C537.768 128.883 539.715 130.286 541.172 131.282L542.96 132.501V132.016L541.397 130.954C539.927 129.971 537.98 128.569 535.782 126.983Z" fill="url(#paint18_linear_371_110)"/>
<path d="M495.338 -63.6464H490.24H485.512C476.48 -63.6464 469.303 -63.1614 461.37 -60.7757C457.303 -59.4256 453.363 -57.7237 449.597 -55.6898C443.32 -52.5308 437.4 -49.5422 430.315 -49.5422C429.132 -49.5398 427.95 -49.6231 426.78 -49.7912C421.549 -50.5384 417.629 -53.5925 413.841 -56.5419C409.59 -59.8582 405.578 -62.991 399.936 -62.991C399.414 -62.9906 398.893 -62.9644 398.373 -62.9124C394.904 -62.5584 389.328 -59.4649 383.952 -56.4632C381.041 -54.7332 378.014 -53.2005 374.894 -51.8754C372.363 -50.9553 369.775 -50.1978 367.146 -49.6077C361.571 -48.2969 360.869 -47.8119 358.168 -37.6663C357.426 -34.8612 356.843 -32.2396 356.353 -29.7097C354.407 -20.2981 352.871 -12.9183 342.74 -5.87931C335.893 -1.09488 327.219 1.22523 316.254 1.22523C305.289 1.22523 293.939 -1.02934 283.875 -3.03487C278.578 -4.07041 273.638 -5.0535 269.956 -5.44675C267.811 -5.66958 264.5 -5.81377 261.11 -5.81377C251.39 -5.81377 240.001 -2.28772 239.206 2.77199C238.822 5.15765 240.716 8.76236 251.866 12.2884L253.098 12.6817C295.568 26.1567 325.193 43.7608 355.347 73.4112C363.65 81.5906 370.007 85.405 375.331 85.405C376.57 85.4047 377.799 85.1826 378.959 84.7496C384.614 82.6654 388.733 75.574 393.526 67.4208C395.99 63.2 398.824 58.4156 402.095 53.8016C417.776 31.7163 440.557 15.5438 466.72 7.92344C473.845 5.85175 481.226 4.7709 488.651 4.71198C511.521 4.71198 527.664 15.8014 542.947 27.2054V26.3796C527.691 15.0149 511.548 4.0959 488.651 4.0959C481.144 4.1607 473.683 5.25919 466.482 7.35979C440.17 15.0328 417.263 31.3071 401.499 53.5263C398.175 58.1534 395.367 62.951 392.904 67.1849C388.19 75.2594 384.124 82.2329 378.694 84.2253C377.604 84.622 376.452 84.826 375.291 84.8283C370.153 84.8283 363.955 81.0794 355.771 73.031C325.537 43.302 295.846 25.6586 253.27 12.1442L252.025 11.751C243.682 9.12938 239.339 5.98345 239.815 2.96861C240.477 -1.23907 250.608 -5.06661 261.07 -5.06661C264.434 -5.06661 267.692 -4.92242 269.837 -4.69959C273.505 -4.31945 278.458 -3.38879 283.703 -2.28772C293.794 -0.334618 305.236 1.9855 316.214 1.9855C327.192 1.9855 336.171 -0.373943 343.124 -5.23702C353.466 -12.4858 355.042 -20.0229 357.002 -29.5786C357.532 -32.1085 358.062 -34.717 358.817 -37.4435C361.465 -47.5497 362.048 -47.6808 367.292 -48.9261C369.949 -49.5151 372.563 -50.277 375.119 -51.2069C378.274 -52.5418 381.332 -54.0923 384.27 -55.8471C389.355 -58.6654 395.102 -61.8637 398.44 -62.2045C398.937 -62.2565 399.436 -62.2828 399.936 -62.2832C405.339 -62.2832 409.272 -59.2159 413.444 -55.9782C417.298 -52.9765 421.284 -49.8699 426.687 -49.0965C427.893 -48.9249 429.11 -48.8373 430.329 -48.8343C437.573 -48.8343 443.836 -51.9934 449.902 -55.0475C453.638 -57.0666 457.546 -58.7554 461.582 -60.0941C469.422 -62.4536 476.56 -62.9386 485.525 -62.9386H490.24H495.352C502.827 -63.0144 510.275 -62.0525 517.481 -60.081C526.222 -57.5239 534.739 -54.2667 542.947 -50.3417V-51.0758C534.791 -54.9702 526.333 -58.2096 517.653 -60.7626C510.388 -62.7548 502.876 -63.7255 495.338 -63.6464Z" fill="url(#paint19_linear_371_110)"/>
<path d="M536.1 138.505C534.563 137.456 532.484 135.962 530.312 134.389C527.2 132.134 524.194 129.709 521.042 127.114C520.327 126.537 519.533 125.882 518.698 125.174C513.401 120.691 506.051 114.556 499.337 114.556C497.527 114.546 495.751 115.041 494.212 115.985C482.598 123.09 489.577 140.078 493.762 150.236C494.265 151.469 494.742 152.635 495.086 153.671C498.023 160.875 500.552 168.236 502.661 175.718C503.045 177.16 503.429 178.864 503.826 180.66C505.68 188.892 508.223 200.178 514.593 204.255C515.583 204.901 516.704 205.326 517.877 205.5C518.22 205.542 518.565 205.564 518.91 205.565C526.697 205.565 534.457 193.86 540.099 185.3C541.132 183.754 542.059 182.351 542.92 181.132V180.45C541.979 181.761 540.933 183.334 539.768 185.091C534.153 193.572 526.459 205.172 518.884 205.172C518.556 205.17 518.229 205.148 517.904 205.107C516.787 204.947 515.719 204.544 514.778 203.927C508.554 199.994 506.038 188.761 504.184 180.581C503.773 178.786 503.389 177.082 503.005 175.627C500.897 168.129 498.364 160.755 495.417 153.54C495.02 152.504 494.543 151.337 494.027 150.105C489.908 140.065 482.995 123.273 494.331 116.326C495.813 115.444 497.515 114.99 499.244 115.015C505.866 115.015 513.057 121.097 518.354 125.501C519.188 126.209 519.97 126.812 520.711 127.468C523.903 130.089 526.909 132.475 529.981 134.73C532.153 136.303 534.232 137.797 535.782 138.859C537.848 140.274 539.927 141.677 542.165 143.171L542.853 143.63V143.158L542.363 142.83C540.298 141.323 538.165 139.92 536.1 138.505Z" fill="url(#paint20_linear_371_110)"/>
<path d="M467.263 231.533C468.005 232.503 469.422 233.84 472.958 234.155C486.201 235.23 506.198 236.855 523.082 252.087L523.281 252.257C529.266 257.772 534.012 264.471 537.213 271.919C538.179 274.069 539.742 275.314 541.49 275.314C541.991 275.31 542.486 275.208 542.947 275.013V274.541C542.498 274.778 541.999 274.908 541.49 274.921C539.901 274.921 538.471 273.767 537.583 271.762C534.352 264.274 529.57 257.54 523.546 251.995L523.347 251.812C506.356 236.501 486.267 234.876 473.024 233.788C469.647 233.526 468.323 232.281 467.608 231.363C466.299 229.436 465.7 227.122 465.912 224.809C467.753 216.787 470.044 206.799 469.183 195.866C467.727 177.371 460.258 161.484 453.027 146.056C447.227 133.721 440.658 119.735 442.936 113.365C447.002 102.013 463.608 85.759 470.561 79.2836C474.734 75.2754 480.333 73.0531 486.148 73.0966C488.927 73.1167 491.688 73.5587 494.332 74.4074C506.515 78.3398 523.758 87.2009 542.987 99.4307V98.985C523.824 86.8076 506.621 77.9335 494.451 74.0797C491.768 73.2221 488.967 72.78 486.148 72.7689C480.218 72.7171 474.508 74.9828 470.256 79.0739C463.29 85.5493 446.631 101.869 442.539 113.299C440.208 119.853 446.816 133.879 452.643 146.292C459.86 161.628 467.316 177.489 468.76 195.919C469.607 206.785 467.329 216.734 465.489 224.757C465.292 227.149 465.918 229.537 467.263 231.533Z" fill="url(#paint21_linear_371_110)"/>
<path d="M492.187 219.657C495.206 221.295 499.338 221.99 503.351 222.658C506.238 223.058 509.087 223.699 511.866 224.572C513.627 225.25 515.351 226.021 517.031 226.879C520.818 228.727 525.122 230.812 529.055 230.812C529.781 230.813 530.504 230.738 531.214 230.589L531.757 230.445C537.372 228.793 540.365 221.82 542.947 215.423V214.335V214.44C540.299 220.994 537.359 228.374 531.691 230.038L531.187 230.169C530.506 230.324 529.808 230.399 529.108 230.392C525.281 230.392 521.017 228.321 517.256 226.46C515.563 225.593 513.826 224.814 512.051 224.127C509.251 223.248 506.38 222.608 503.47 222.213C499.497 221.544 495.392 220.902 492.439 219.25C485.896 215.698 486.572 209.196 487.3 202.315C487.658 199.656 487.782 196.972 487.671 194.293C485.963 172.481 477.779 155.06 469.859 138.216C468.088 134.55 467.107 130.559 466.979 126.497C466.851 122.434 467.58 118.39 469.118 114.622C470.922 110.442 473.576 106.673 476.913 103.55C480.251 100.427 484.201 98.0164 488.519 96.4674C491.276 95.4274 494.202 94.8944 497.153 94.8944C509.933 94.8944 521.931 104.594 532.512 113.141C535.518 115.566 538.352 117.86 541.067 119.813L542.947 121.268V120.783L541.239 119.551C538.59 117.598 535.717 115.317 532.71 112.892C522.116 104.293 510.025 94.5405 497.1 94.5405C494.1 94.5427 491.125 95.0846 488.32 96.1397C483.953 97.7048 479.958 100.141 476.582 103.298C473.206 106.455 470.521 110.265 468.694 114.491C467.135 118.31 466.397 122.408 466.527 126.524C466.657 130.641 467.652 134.685 469.449 138.4C477.395 155.205 485.526 172.599 487.221 194.332C487.331 196.99 487.207 199.652 486.85 202.289C486.148 209.092 485.42 215.973 492.187 219.657Z" fill="url(#paint22_linear_371_110)"/>
<path d="M495.338 -50.4474C484.201 -50.4474 472.348 -48.4419 459.794 -46.3184C445.664 -43.9327 431.043 -41.4684 415.483 -41.4684C414.357 -41.4684 413.245 -41.4684 412.172 -41.4684C407.454 -41.6584 402.761 -42.2549 398.148 -43.2511C395.059 -43.9837 391.906 -44.4226 388.732 -44.5619C381.859 -44.5619 376.813 -40.9703 371.278 -32.1879C368.671 -27.6627 366.498 -22.9055 364.789 -17.9788C361.465 -9.31439 358.035 -0.361591 350.433 4.94716C347.785 6.78228 342.819 8.19795 337.521 9.69226C328.251 12.3139 317.763 15.2763 316.333 21.4895C314.558 29.2363 330.648 39.8407 339.296 45.5558C340.912 46.6176 342.302 47.5351 343.269 48.1774C353.4 55.5442 361.809 60.4466 369.755 60.4466C370.834 60.4477 371.91 60.3555 372.973 60.1713C379.343 59.0309 385.117 54.5873 391.156 46.1588C408.602 21.625 433.923 3.65792 462.999 -4.81833C471.335 -7.21902 479.968 -8.45872 488.65 -8.50168C511.494 -8.50168 528.379 0.673943 542.946 10.8065V10.3215C528.379 0.175835 511.494 -8.89493 488.65 -8.89493C479.92 -8.83058 471.241 -7.55993 462.866 -5.11981C433.698 3.3707 408.295 21.3902 390.798 46.0015C384.825 54.3382 379.131 58.7294 372.88 59.8436C371.84 60.0274 370.785 60.1195 369.728 60.1189C361.862 60.1189 353.532 55.2427 343.454 47.9284C342.541 47.2599 341.15 46.3423 339.481 45.3068C330.913 39.6572 314.955 29.1446 316.677 21.6468C318.001 15.6826 328.424 12.7595 337.574 10.1773C342.872 8.66984 347.944 7.24106 350.606 5.37972C358.3 0.0054245 361.756 -9.03912 365.107 -17.7429C366.812 -22.6398 368.97 -27.3701 371.556 -31.8733C376.999 -40.5246 381.965 -44.0638 388.679 -44.0638C391.826 -43.917 394.952 -43.4782 398.015 -42.753C402.654 -41.7452 407.374 -41.1442 412.119 -40.9572C413.192 -40.9572 414.304 -40.9572 415.43 -40.9572C431.03 -40.9572 445.664 -43.4215 459.82 -45.8203C472.348 -47.9306 484.174 -49.9362 495.285 -49.9362C501.546 -50.0135 507.787 -49.2193 513.825 -47.5767C523.882 -44.5382 533.635 -40.5891 542.96 -35.7795V-36.2252C533.686 -40.9907 523.986 -44.896 513.984 -47.8913C507.921 -49.6077 501.644 -50.4682 495.338 -50.4474Z" fill="url(#paint23_linear_371_110)"/>
<path d="M483.618 226.723C486.267 227.391 488.915 228.033 491.564 228.584C505.416 231.769 517.374 234.509 529.333 245.218L529.571 245.441C532.312 247.905 534.484 249.098 536.193 249.098C536.452 249.101 536.71 249.071 536.961 249.006C539.609 248.416 540.854 244.825 542.258 240.198C542.47 239.49 542.708 238.769 542.947 238.061V236.75C542.576 237.851 542.218 238.966 541.874 240.08C540.483 244.576 539.225 248.063 536.855 248.613C535.133 249.019 532.882 247.879 529.796 245.126L529.558 244.917C517.52 234.129 505.522 231.376 491.617 228.191C489.061 227.601 486.412 226.998 483.671 226.329C473.951 223.918 475.593 214.873 477.182 206.13C478.017 202.498 478.404 198.778 478.334 195.054C476.758 174.907 468.932 158.246 461.357 142.137C460.456 140.21 459.489 138.322 458.549 136.5C453.676 127.062 449.478 118.896 455.49 108.855C460.006 101.305 466.773 95.118 473.328 89.1932C474.507 88.1184 475.685 87.0435 476.838 85.9686C479.651 83.519 483.318 82.2496 487.061 82.4295C503.376 82.4295 528.472 99.6141 542.907 109.956V109.471C528.379 99.0505 503.443 81.9445 487.101 81.9445C483.255 81.7654 479.49 83.072 476.599 85.5885C475.447 86.6634 474.268 87.7382 473.09 88.8131C466.468 94.8166 459.728 101.017 455.185 108.619C449.067 118.844 453.517 127.495 458.231 136.644C459.171 138.466 460.138 140.341 461.039 142.268C468.6 158.338 476.414 174.972 477.99 195.054C478.044 198.743 477.658 202.426 476.838 206.025C475.222 214.991 473.54 224.219 483.618 226.723Z" fill="url(#paint24_linear_371_110)"/>
<path d="M204.92 415.491C201.569 420.485 197.411 426.711 198.841 431.011C199.215 431.959 199.807 432.808 200.571 433.491C201.334 434.173 202.247 434.671 203.238 434.943C203.697 435.103 204.181 435.183 204.668 435.179C209.793 435.179 217.911 427.314 225.036 420.459C229.592 416.068 233.882 411.925 236.465 410.759C248.82 405.214 265.838 402.579 280.855 400.272C286.788 399.355 292.377 398.477 297.555 397.48C308.691 395.261 320.017 394.107 331.377 394.033C366.246 394.033 395.539 406.459 418.423 430.958C420.979 433.711 424.713 435.1 429.507 435.1C444.446 435.1 470.071 420.682 488.121 394.033C498.914 378.081 514.607 345.455 498.291 306.275C491.749 290.545 482.042 283.257 467.74 283.257C456.841 283.257 444.419 287.189 430.037 291.803C412.345 297.453 392.281 303.85 370.709 303.85C354.234 303.927 338.006 299.892 323.524 292.118C277.452 267.803 276.101 223.419 280.087 187.49C281.623 173.503 279.12 162.44 272.817 155.493C270.618 153.062 267.913 151.132 264.889 149.835C261.864 148.539 258.591 147.906 255.296 147.982C242.053 147.982 225.407 158.206 219.421 177.724C213.793 196.076 227.142 212.814 242.609 232.162C260.037 253.974 279.796 278.695 275.968 311.688C274.061 328.047 268.023 343.737 259.825 353.634C253.601 361.171 248.105 361.84 242.278 362.548C237.829 363.098 233.233 363.649 227.844 367.044C223.725 369.665 222.44 374.017 221.063 378.683C220.31 381.962 218.993 385.088 217.17 387.925C216.084 389.419 214.19 389.747 212.19 390.087C209.542 390.546 206.575 391.057 204.986 394.426C203.887 396.773 205.344 399.538 206.747 402.212C207.913 404.441 209.131 406.748 208.774 408.662C208.482 410.182 206.827 412.646 204.92 415.491ZM207.423 401.845C206.099 399.224 204.774 396.746 205.675 394.728C207.092 391.726 209.754 391.267 212.296 390.795C214.362 390.441 216.494 390.074 217.766 388.331C219.622 385.417 220.965 382.213 221.739 378.854C223.063 374.332 224.308 370.072 228.188 367.633C233.485 364.343 237.935 363.793 242.305 363.255C248.277 362.534 253.932 361.84 260.342 354.08C268.645 344.039 274.737 328.191 276.657 311.701C280.524 278.394 260.66 253.541 243.139 231.611C227.804 212.434 214.574 195.866 220.083 177.868C225.963 158.691 242.212 148.664 255.23 148.664C258.417 148.589 261.582 149.198 264.508 150.45C267.434 151.701 270.052 153.565 272.181 155.913C278.339 162.702 280.776 173.569 279.253 187.372C275.28 223.55 276.604 268.222 323.1 292.76C337.691 300.592 354.044 304.65 370.642 304.558C392.334 304.558 412.464 298.148 430.236 292.485C444.551 287.91 456.92 283.965 467.7 283.965C481.844 283.965 491.048 290.925 497.537 306.524C513.706 345.376 498.159 377.74 487.445 393.574C470.23 419.069 444.419 434.301 429.468 434.301C424.899 434.301 421.35 432.99 418.94 430.368C395.95 405.712 366.471 393.233 331.377 393.233C319.969 393.3 308.593 394.454 297.409 396.681C292.257 397.69 286.656 398.555 280.736 399.473C265.665 401.806 248.595 404.454 236.147 410.038C233.498 411.244 229.3 415.281 224.506 419.882C217.461 426.685 209.476 434.38 204.642 434.38C204.241 434.388 203.842 434.326 203.463 434.196C202.574 433.979 201.75 433.556 201.059 432.961C200.368 432.366 199.83 431.617 199.49 430.775C198.166 426.842 202.218 420.773 205.476 415.91C207.436 412.987 209.118 410.47 209.449 408.78C209.926 406.617 208.654 404.192 207.423 401.845Z" fill="url(#paint25_linear_371_110)"/>
<path d="M524.989 326.029C527.388 327.262 530.076 327.836 532.775 327.694C536.226 327.649 539.652 327.111 542.946 326.095V325.125C539.658 326.175 536.23 326.732 532.775 326.776C530.255 326.91 527.743 326.385 525.492 325.256C517.718 320.34 514.275 311.65 510.633 302.461C507.495 294.53 504.25 286.325 497.933 280.544V280.269H497.655C490.411 273.938 480.638 270.857 467.792 270.857C455.264 270.857 442.088 273.833 431.506 276.232C424.263 277.857 418.025 279.273 413.999 279.273C411.642 279.273 410.199 278.788 409.603 277.805C408.821 276.494 409.417 274.016 411.377 270.464C420.528 253.935 439.002 214.506 437.731 198.186C436.724 185.314 430.474 171.97 424.422 159.151C415.655 140.55 406.61 121.269 413.165 102.917C420.687 81.9444 453.808 44.4161 477.38 41.2309C478.842 41.042 480.316 40.9501 481.79 40.9556C497.112 40.9556 519.546 50.0001 542.92 63.0951V62.112C519.533 49.0039 497.125 40.038 481.79 40.038C480.271 40.0302 478.753 40.1266 477.248 40.3264C453.41 43.551 419.879 81.4201 412.291 102.603C405.577 121.347 414.714 140.773 423.547 159.57C429.56 172.35 435.771 185.577 436.79 198.278C437.929 212.828 421.813 249.714 410.556 270.058C408.358 273.99 407.802 276.612 408.795 278.303C409.576 279.613 411.271 280.216 413.986 280.216C418.118 280.216 424.408 278.801 431.692 277.149C442.286 274.764 455.357 271.801 467.779 271.801C480.466 271.801 490.08 274.842 497.165 281.108C503.416 286.757 506.647 294.911 509.772 302.815C513.467 312.135 516.963 320.956 524.989 326.029Z" fill="url(#paint26_linear_371_110)"/>
<path d="M223.791 401.78C225.204 402.052 226.644 402.166 228.082 402.121C232.121 402.121 247.073 401.531 270.38 393.902C291.13 387.337 312.785 384.002 334.569 384.019C370.616 384.019 394.573 389.367 425.416 418.598C427.789 420.737 430.922 421.858 434.129 421.717C447.545 421.717 467.82 407.298 480.294 388.829C490.041 374.41 504.198 345.009 489.565 309.84C483.261 294.714 475.355 292.616 467.753 292.616C458.351 292.616 446.565 296.365 432.951 300.717C414.596 306.576 393.791 313.209 370.709 313.209C352.678 313.3 334.915 308.891 319.061 300.389C267.414 273.125 266.712 222.318 270.672 186.481C271.903 175.378 270.155 166.596 265.772 161.746C264.452 160.301 262.83 159.16 261.018 158.401C259.207 157.643 257.249 157.286 255.283 157.355C245.47 157.355 233.101 165.298 228.453 180.451C224.255 194.162 236.187 209.079 249.999 226.329C267.665 248.416 289.635 275.943 285.358 312.645C284.195 322.975 281.337 333.048 276.896 342.466C270.39 356.526 261.063 369.129 249.483 379.509C243.181 384.904 236.405 389.729 229.234 393.928C224.295 396.969 221.288 398.805 221.527 400.194C221.62 400.889 222.335 401.347 223.791 401.78ZM229.473 394.4C236.657 390.197 243.451 385.372 249.774 379.981C261.392 369.559 270.754 356.913 277.293 342.807C281.743 333.349 284.61 323.237 285.782 312.868C290.006 275.759 268.023 248.193 250.277 226.054C236.531 208.856 224.665 194.005 228.797 180.503C233.393 165.521 245.576 157.682 255.283 157.682C257.194 157.615 259.096 157.962 260.857 158.698C262.618 159.433 264.196 160.541 265.48 161.942C269.784 166.714 271.493 175.378 270.274 186.376C266.301 222.318 267.003 273.295 318.876 300.678C334.782 309.21 352.604 313.637 370.696 313.55C393.831 313.55 414.662 306.891 433.07 301.019C446.657 296.693 458.377 292.944 467.727 292.944C475.196 292.944 482.956 295.002 489.167 309.984C503.735 344.983 489.618 374.214 479.897 388.633C467.687 406.669 447.134 421.337 434.063 421.337C430.959 421.479 427.924 420.395 425.628 418.322C410.676 404.153 396.758 395.147 381.846 389.983C369.001 385.539 354.844 383.639 334.503 383.639C312.678 383.624 290.983 386.968 270.195 393.548C246.927 401.151 232.029 401.741 228.016 401.741C226.609 401.783 225.201 401.673 223.818 401.413C222.6 401.098 221.951 400.718 221.884 400.273C221.752 399.067 224.97 397.074 229.446 394.335L229.473 394.4Z" fill="url(#paint27_linear_371_110)"/>
<path d="M255.296 166.333C248.197 166.333 240.397 173.451 237.841 179.821C236.146 184.055 237.431 191.291 241.285 199.169C244.926 206.601 249.76 212.277 253.336 213.378C253.864 213.536 254.412 213.62 254.965 213.627C255.569 213.624 256.168 213.522 256.739 213.325C261.348 211.726 261.242 208.934 261.017 202.839C260.733 197.488 260.883 192.122 261.467 186.795C262.526 177.265 261.017 170.003 258.977 167.762C258.522 167.252 257.951 166.856 257.311 166.607C256.671 166.359 255.98 166.265 255.296 166.333ZM260.871 186.69C260.287 192.048 260.137 197.444 260.421 202.826C260.646 208.974 260.738 211.267 256.58 212.696C255.614 213.018 254.567 213.018 253.601 212.696C250.184 211.687 245.509 206.142 241.947 198.828C238.172 191.107 236.888 184.081 238.517 180.018C240.993 173.831 248.528 166.91 255.362 166.91C255.949 166.845 256.543 166.916 257.097 167.119C257.652 167.321 258.15 167.649 258.553 168.077C260.421 170.305 261.838 177.357 260.871 186.69Z" fill="url(#paint28_linear_371_110)"/>
<path d="M181.294 250.828C180.661 250.152 179.798 249.732 178.871 249.648C177.017 249.648 175.719 251.981 173.759 255.52C171.172 260.5 167.93 265.119 164.118 269.258L162.701 270.699C157.179 276.493 154.65 279.141 155.272 280.557C155.55 281.212 156.411 281.5 158.04 281.5C160.33 281.415 162.612 281.187 164.873 280.819C166.282 280.631 167.702 280.535 169.124 280.53C180.606 280.53 190.18 286.901 197.173 291.554C201.265 294.281 204.496 296.444 206.814 296.444C207.271 296.452 207.724 296.352 208.134 296.151C208.544 295.95 208.9 295.655 209.171 295.29C216.508 286.023 190.856 259.413 181.294 250.828ZM208.654 294.936C208.442 295.219 208.163 295.448 207.843 295.603C207.523 295.758 207.17 295.835 206.814 295.828C204.695 295.828 201.516 293.717 197.544 291.056C190.485 286.35 180.804 279.914 169.124 279.914C167.671 279.916 166.22 280.017 164.78 280.216C162.55 280.581 160.299 280.804 158.04 280.884C156.716 280.884 156.04 280.701 155.881 280.347C155.431 279.325 158.53 276.087 163.178 271.171L164.595 269.69C168.45 265.515 171.727 260.851 174.342 255.822C176.196 252.492 177.414 250.29 178.871 250.29C179.636 250.384 180.341 250.747 180.857 251.313C192.723 261.983 215.157 286.665 208.654 294.936Z" fill="url(#paint29_linear_371_110)"/>
<path d="M181.48 261.76C176.844 261.76 170.885 268.996 170.885 272.43C170.865 272.744 170.915 273.058 171.032 273.351C171.149 273.643 171.33 273.907 171.561 274.122C171.793 274.337 172.069 274.499 172.371 274.597C172.673 274.694 172.993 274.724 173.309 274.685C180.129 274.816 187.346 279.102 192.617 282.222C195.742 284.083 197.994 285.42 199.331 285.42C199.52 285.431 199.708 285.401 199.884 285.333C200.06 285.265 200.219 285.161 200.351 285.027C200.515 284.813 200.633 284.567 200.697 284.305C200.76 284.044 200.769 283.772 200.722 283.507C200.232 277.202 188.141 264.579 183.241 262.154C182.694 261.884 182.09 261.749 181.48 261.76ZM199.755 283.572C199.755 284.123 199.755 284.332 199.622 284.398C199.49 284.464 199.53 284.503 199.291 284.503C198.219 284.503 195.822 283.074 193.054 281.436C187.757 278.25 180.354 273.898 173.282 273.781C172.223 273.781 171.759 273.348 171.772 272.47C171.772 269.402 177.348 262.704 181.48 262.704C181.939 262.695 182.394 262.799 182.804 263.006C188.035 265.588 199.318 277.857 199.755 283.572Z" fill="url(#paint30_linear_371_110)"/>
<path d="M165.098 142.871C166.237 142.871 167.138 141.271 168.038 137.706C171.362 124.323 182.34 106.614 199.384 97.1891C216.6 87.6595 228.148 85.1821 234.319 83.8582C237.391 83.2028 238.928 82.862 239.298 82.0624C239.366 81.8838 239.389 81.6918 239.366 81.5025C239.343 81.3132 239.274 81.1321 239.166 80.9744C237.974 78.8247 216.653 66.9882 185.85 64.5238L184.526 64.419C181.758 64.1961 179.361 63.9995 177.07 63.9995C169.058 63.9995 162.582 66.2279 147.485 78.8509C145.101 80.8433 142.665 82.6916 140.307 84.4743C133.01 90.0189 126.707 94.8034 127.064 100.204C127.382 104.372 131.54 108.514 140.188 113.22C149.75 118.463 155.576 128.793 159.43 135.635C161.96 140 163.575 142.871 165.098 142.871ZM140.453 112.906C132.057 108.318 127.832 104.163 127.541 100.204C127.144 94.9607 133.368 90.2549 140.572 84.7889C142.943 82.993 145.379 81.1448 147.776 79.1393C162.767 66.608 169.177 64.3928 177.096 64.3928C179.374 64.3928 181.758 64.5894 184.526 64.8122L185.85 64.9171C215.885 67.3158 237.709 79.1131 238.822 81.1579C239.06 81.5774 239.007 81.7871 238.954 81.9051C238.663 82.5212 237.007 82.8751 234.253 83.478C228.055 84.7889 216.507 87.2925 199.212 96.8482C181.917 106.404 171.004 124.152 167.654 137.601C166.846 140.891 166.012 142.477 165.111 142.477C163.787 142.477 162.079 139.384 159.814 135.478C155.987 128.583 150.12 118.175 140.453 112.906Z" fill="url(#paint31_linear_371_110)"/>
<path d="M167.6 165.376C168.752 165.376 169.547 164.065 170.103 161.077C173.546 143.027 180.989 117.466 205.859 103.834C214.247 99.3428 223.172 95.9123 232.424 93.6229C234.714 92.8157 236.863 91.6615 238.794 90.2017C241.536 88.3797 244.383 86.479 247.005 86.479C247.302 86.4792 247.599 86.5055 247.892 86.5577C249.273 86.8851 250.549 87.5523 251.6 88.4977C252.644 89.5214 254.017 90.152 255.48 90.2804C256.108 90.2676 256.728 90.1387 257.308 89.9002C258.274 89.4523 259.068 88.7075 259.572 87.7767C259.89 87.0731 260.429 86.4905 261.11 86.117C261.791 85.7434 262.576 85.599 263.347 85.7057C265.585 85.8892 266.79 87.5801 268.061 89.3628C268.85 90.6632 269.917 91.7772 271.187 92.6267C272.484 93.3008 273.92 93.673 275.385 93.7147C275.797 93.7601 276.214 93.7091 276.603 93.5657C276.992 93.4222 277.341 93.1904 277.623 92.8889C277.827 92.5625 277.951 92.1934 277.985 91.8111C278.02 91.4288 277.964 91.0437 277.821 90.6867C276.96 87.5932 270.26 84.7094 265.836 82.8219C264.512 82.2582 263.386 81.7733 262.671 81.3931C256.05 77.9326 249.428 74.9964 243.919 72.5845C220.453 62.4258 199.065 56.2257 178.526 53.6303C176.493 53.36 174.445 53.2155 172.394 53.1978C162.276 53.1978 154.437 57.5758 138.836 71.9422C135.009 75.4683 131.063 78.4963 127.262 81.4193C118.72 87.9734 111.98 93.151 112.138 99.6657C112.271 104.817 116.787 110.296 126.335 116.916C141.723 127.573 151.947 143.761 158.701 154.47C162.872 161.024 165.6 165.376 167.6 165.376ZM126.547 116.536C117.091 109.982 112.642 104.621 112.509 99.6133C112.364 93.2952 119.025 88.17 127.474 81.6815C131.288 78.7453 135.234 75.7173 139.075 72.1782C154.595 57.8904 162.382 53.5386 172.368 53.5386C174.401 53.556 176.431 53.7005 178.446 53.9711C198.946 56.5927 220.307 62.7535 243.734 72.8991C249.296 75.311 255.864 78.2341 262.459 81.6815C263.188 82.0747 264.327 82.5597 265.651 83.1234C270.008 85.0109 276.603 87.8554 277.411 90.7654C277.536 91.0645 277.59 91.3884 277.567 91.7115C277.544 92.0346 277.445 92.348 277.278 92.6267C277.026 92.8686 276.724 93.0535 276.392 93.1689C276.061 93.2843 275.708 93.3274 275.358 93.2952C273.971 93.2471 272.612 92.8886 271.385 92.2466C270.166 91.4337 269.144 90.3638 268.392 89.1138C267.068 87.3311 265.744 85.4959 263.386 85.2862C262.543 85.1727 261.684 85.3305 260.938 85.7365C260.192 86.1424 259.597 86.7749 259.241 87.5408C258.779 88.4 258.05 89.0894 257.162 89.507C256.629 89.7266 256.058 89.8423 255.48 89.8478C254.106 89.7169 252.819 89.1195 251.839 88.1569C250.759 87.1922 249.452 86.5115 248.038 86.1775C247.724 86.114 247.405 86.0832 247.084 86.0858C244.33 86.0858 241.443 88.0127 238.649 89.874C236.761 91.3137 234.656 92.4505 232.411 93.2428C223.126 95.5463 214.167 98.9852 205.74 103.48C180.684 117.204 173.189 142.883 169.732 160.998C169.229 163.685 168.54 164.931 167.627 164.931C165.839 164.931 162.991 160.408 159.045 154.156C152.278 143.473 141.988 127.245 126.547 116.536Z" fill="url(#paint32_linear_371_110)"/>
<path d="M216.521 329.856C221.174 329.212 225.595 327.439 229.389 324.694C233.183 321.95 236.232 318.32 238.266 314.127C242.053 306.354 244.106 293.154 232.346 274.501C227.3 266.492 221.752 258.391 216.454 250.566C201.225 228.19 186.843 207.047 180.897 185.838C174.183 161.851 179.573 142.058 197.875 123.562C213.766 107.544 234.664 98.3554 255.336 98.3554C270.87 98.3554 284.735 103.769 294.363 113.587C304.957 124.388 310.254 140.17 309.658 159.255C309.526 163.686 309.314 168.26 309.089 173.097C308.281 190.321 307.381 209.8 310.188 226.08C313.419 244.759 321.087 256.229 333.615 261.354C339.598 263.913 346.023 265.306 352.539 265.457C357.652 265.512 362.702 264.334 367.252 262.026C371.802 259.717 375.715 256.346 378.654 252.204C389.659 237.458 392.295 212.212 385.21 189.378C370.02 140.38 333.562 111.123 279.518 79.8075C238.464 56.0164 203.86 48.6759 172.528 44.2847C170.335 43.9656 168.122 43.7992 165.906 43.7866C152.835 43.7866 146.598 50.3406 138.718 58.7298C135.686 61.9412 132.56 65.2838 128.68 68.6395C125.009 71.7745 121.055 74.5694 116.867 76.9893C111.345 80.358 106.578 83.2549 101.333 91.0149C90.9244 106.417 104.856 115.92 119.595 125.869C127.396 131.112 135.487 136.618 139.764 143.093C166.886 183.728 155.947 227.155 136.652 254.197C131.143 261.917 123.092 269.219 114.563 276.952C104.141 286.403 93.3743 296.169 87.2031 307.101C84.5545 311.793 83.7997 314.966 84.8988 316.84C85.7067 318.151 87.5474 318.872 90.3417 318.872C95.427 318.872 103.505 316.788 112.855 314.363C125.979 310.981 142.307 306.76 156.742 306.76C163.419 306.574 170.06 307.798 176.222 310.352C181.239 312.827 185.941 315.88 190.233 319.449C197.305 324.901 203.993 330.053 213.448 330.053C214.475 330.04 215.501 329.975 216.521 329.856ZM176.421 310.024C170.214 307.432 163.515 306.198 156.782 306.406C142.294 306.406 125.939 310.627 112.789 314.022C103.452 316.434 95.4005 318.518 90.3682 318.518C87.7196 318.518 85.998 317.915 85.2696 316.683C84.2367 314.952 84.9915 311.898 87.5739 307.337C93.7054 296.483 104.459 286.731 114.868 277.306C123.409 269.559 131.474 262.245 137.01 254.485C148.127 239.102 154.781 221.002 156.252 202.145C157.748 181.172 152.279 161.235 140.069 142.87C135.712 136.316 127.621 130.85 119.794 125.541C105.227 115.645 91.4409 106.312 101.638 91.2246C106.842 83.5433 111.57 80.6595 117.04 77.3301C121.268 74.9023 125.258 72.0894 128.958 68.9278C132.49 65.7919 135.854 62.4754 139.036 58.9919C146.849 50.7208 153.034 44.1799 165.933 44.1799C168.127 44.1931 170.317 44.3596 172.488 44.678C203.781 49.0561 238.372 56.3966 279.319 80.1483C333.231 111.411 369.689 140.616 384.852 189.482C391.897 212.212 389.288 237.327 378.35 251.968C375.45 256.064 371.585 259.399 367.09 261.683C362.595 263.967 357.605 265.132 352.552 265.076C346.096 264.935 339.729 263.56 333.8 261.026C321.405 256.032 313.817 244.589 310.612 226.054C307.804 209.852 308.705 190.361 309.513 173.163C309.738 168.313 309.95 163.738 310.082 159.295C310.665 140.118 305.341 124.231 294.681 113.351C284.974 103.454 271.016 98.0014 255.362 98.0014C234.584 98.0014 213.541 107.177 197.623 123.326C187.903 133.157 181.89 143.29 179.268 154.327C176.924 164.184 177.335 174.539 180.593 185.983C186.552 207.257 200.947 228.413 216.203 250.828C221.5 258.693 227.036 266.741 232.094 274.75C243.761 293.272 241.735 306.314 237.988 313.996C235.981 318.124 232.975 321.697 229.237 324.397C225.499 327.098 221.144 328.843 216.56 329.476C215.566 329.584 214.567 329.641 213.568 329.647C204.297 329.647 197.676 324.534 190.591 319.16C186.251 315.568 181.494 312.501 176.421 310.024Z" fill="url(#paint33_linear_371_110)"/>
<path d="M225.209 313.59C226.91 312.387 228.33 310.837 229.372 309.043C230.414 307.249 231.053 305.255 231.248 303.195C232.837 290.31 221.289 271.5 210.906 259.322C197.968 244.117 185.122 227.863 178.845 212.133C178.282 210.27 177.814 208.38 177.441 206.471C175.429 197.151 172.038 181.565 167.152 181.565C166.682 181.585 166.226 181.725 165.827 181.972C163.801 183.165 163.179 185.511 164 189.155C164.864 192.394 166.026 195.549 167.469 198.58C168.86 201.791 170.118 204.557 170.052 206.13C170.052 210.167 168.092 211.95 166.251 213.68C164.561 214.985 163.344 216.797 162.781 218.845C162.093 221.964 163.391 224.311 164.649 226.578C165.907 228.846 167.019 230.839 166.635 233.631C165.933 238.743 149.539 257.225 135.077 273.518C123.159 287.006 112.776 298.659 112.961 300.888C112.965 300.962 112.983 301.035 113.014 301.103C113.046 301.17 113.091 301.231 113.147 301.281C114.14 302.107 115.928 302.5 118.643 302.5C124.392 302.214 130.113 301.531 135.766 300.455C144.122 299.144 153.591 297.624 161.815 297.624C168.238 297.624 173.045 298.528 176.501 300.39C178.395 301.412 180.474 302.605 182.699 303.89C192.578 309.565 204.868 316.644 215.277 316.644C218.833 316.71 222.316 315.639 225.209 313.59ZM176.647 299.997C173.124 298.096 168.264 297.178 161.775 297.178C153.525 297.178 144.029 298.686 135.66 300.023C130.028 301.087 124.329 301.766 118.603 302.054C115.954 302.054 114.272 301.687 113.306 300.927C113.306 300.927 113.306 300.927 113.306 300.809C113.134 298.738 123.9 286.6 135.329 273.728C149.83 257.382 166.251 238.861 166.966 233.631C167.377 230.707 166.145 228.479 164.953 226.329C163.761 224.18 162.464 221.86 163.113 218.871C163.657 216.904 164.833 215.165 166.463 213.916C168.37 212.133 170.343 210.285 170.436 206.051C170.436 204.4 169.231 201.595 167.787 198.344C166.36 195.332 165.208 192.2 164.344 188.985C163.589 185.537 164.119 183.335 166 182.234C166.347 182.01 166.751 181.888 167.165 181.88C171.734 181.88 175.203 197.911 177.071 206.523C177.436 208.473 177.904 210.403 178.474 212.304C184.778 228.033 197.65 244.327 210.602 259.493C220.931 271.618 232.426 290.297 230.864 303.064C230.669 305.071 230.043 307.014 229.027 308.762C228.01 310.51 226.627 312.022 224.97 313.196C222.129 315.184 218.715 316.21 215.237 316.119C204.934 316.119 192.724 309.067 182.858 303.418C180.646 302.159 178.541 301.006 176.647 299.997Z" fill="url(#paint34_linear_371_110)"/>
<path d="M220.678 297.139C221.857 286.351 210.163 269.402 204.323 262.887C196.603 254.218 189.345 245.157 182.578 235.741C177.956 229.462 175.413 226.001 173.771 226.001C172.646 226.001 172.023 227.443 171.639 230.996C168.752 257.684 151.311 272.129 140.889 280.806C136.333 284.594 133.314 287.085 133.195 289.143C133.178 289.442 133.224 289.741 133.332 290.021C133.439 290.301 133.604 290.556 133.817 290.768C134.465 291.324 135.221 291.742 136.039 291.995C136.857 292.247 137.72 292.33 138.572 292.236C141.79 292.061 144.988 291.622 148.133 290.926C153.419 289.817 158.796 289.19 164.197 289.051C171.904 289.051 178.115 290.952 183.214 294.871C190.365 300.376 200.972 306.249 209.262 306.249C211.983 306.334 214.658 305.548 216.89 304.007C217.986 303.202 218.893 302.171 219.547 300.985C220.2 299.799 220.586 298.487 220.678 297.139ZM209.223 305.829C201.039 305.829 190.524 299.996 183.412 294.53C178.247 290.598 171.957 288.632 164.157 288.632C158.733 288.777 153.334 289.413 148.027 290.532C144.904 291.227 141.728 291.665 138.532 291.843C137.737 291.939 136.93 291.872 136.163 291.647C135.395 291.421 134.682 291.042 134.069 290.532C133.892 290.364 133.754 290.159 133.665 289.933C133.576 289.707 133.538 289.464 133.552 289.222C133.658 287.334 136.784 284.739 141.114 281.16C151.576 272.483 169.083 257.972 171.997 231.127C172.341 227.915 172.884 226.486 173.732 226.486C175.175 226.486 177.824 230.091 182.207 236.068C188.992 245.49 196.264 254.56 203.992 263.241C209.792 269.717 221.406 286.534 220.241 297.191C220.149 298.478 219.777 299.73 219.151 300.861C218.524 301.992 217.658 302.976 216.612 303.745C214.439 305.207 211.848 305.938 209.223 305.829Z" fill="url(#paint35_linear_371_110)"/>
<path d="M333.827 189.286C332.502 209.787 338.409 223.904 344.421 230.275C347.176 233.185 350.208 234.784 352.936 234.797C356.79 234.797 359.69 231.795 361.094 226.342C370.139 191.252 339.336 154.248 335.561 151.168C334.462 150.276 333.721 150.158 333.231 150.683C332.343 151.64 332.621 154.772 333.125 160.461C334.123 170.036 334.358 179.674 333.827 189.286ZM333.707 151.128C333.735 151.096 333.77 151.07 333.809 151.052C333.847 151.034 333.89 151.024 333.933 151.024C334.118 151.024 334.476 151.142 335.124 151.666C338.872 154.733 369.41 191.396 360.445 226.185C359.121 231.31 356.472 234.142 352.923 234.142C350.38 234.142 347.52 232.608 344.898 229.816C338.965 223.55 333.111 209.63 334.462 189.325C334.998 179.679 334.768 170.006 333.774 160.396C333.363 155.454 333.045 151.876 333.707 151.128Z" fill="url(#paint36_linear_371_110)"/>
<path d="M495.337 -41.2713C484.981 -41.2713 473.5 -39.3313 461.356 -37.3389C446.789 -34.8877 431.837 -32.3578 415.482 -32.3578C414.277 -32.3578 413.085 -32.3578 411.96 -32.3578L409.073 -32.4365C406.596 -32.4365 404.265 -32.5676 402.014 -32.5676C387.924 -32.5676 379.21 -29.7231 373.449 -14.7275C369.82 -5.25042 365.702 5.48506 355.809 12.4061C353.015 14.3723 350.221 16.0501 347.744 17.5182C342.023 20.9394 337.508 23.6397 337.335 27.3755C337.19 30.8098 340.686 34.9388 348.711 40.7588C356.392 46.3428 362.722 49.0562 368.046 49.0562C368.523 49.0562 369.013 49.0562 369.476 49.0562C377.21 48.3483 382.401 42.0171 388.97 34.0081C392.205 29.9352 395.653 26.0324 399.299 22.3158C416.275 5.42323 437.303 -6.92983 460.416 -13.5871C469.588 -16.2499 479.091 -17.6265 488.65 -17.6768C511.163 -17.6768 528.564 -9.61539 542.946 -0.282478V-0.754356C528.564 -10.048 511.163 -18.0701 488.65 -18.0701C479.055 -18.0078 469.516 -16.618 460.31 -13.941C437.133 -7.25984 416.047 5.12875 399.021 22.0667C395.362 25.7883 391.905 29.7001 388.665 33.7853C382.15 41.7288 377.011 47.9944 369.436 48.6891C368.986 48.6891 368.509 48.6891 368.046 48.6891C362.815 48.6891 356.564 46.0675 348.936 40.4704C340.99 34.7291 337.587 30.7049 337.733 27.3624C337.892 23.8494 342.341 21.1885 347.956 17.8328C350.433 16.3516 353.253 14.6738 356.048 12.7076C366.033 5.7079 370.165 -5.09312 373.82 -14.6227C379.488 -29.3037 388.109 -32.0957 402.014 -32.0957C404.265 -32.0957 406.596 -32.0301 409.059 -31.9646L411.946 -31.8859C413.085 -31.8859 414.264 -31.8859 415.482 -31.8859C431.864 -31.8859 446.895 -34.4289 461.422 -36.8801C473.553 -38.925 485.008 -40.8125 495.337 -40.8125C500.733 -40.8799 506.113 -40.2049 511.322 -38.807C521.585 -35.9232 532.1 -31.165 542.946 -25.5416V-25.9873C532.139 -31.5189 521.664 -36.2378 511.428 -39.0954C506.194 -40.5651 500.777 -41.2976 495.337 -41.2713Z" fill="url(#paint37_linear_371_110)"/>
<path d="M323.577 188.119C322.041 208.004 326.014 224.101 334.754 233.434C339.323 238.323 344.938 241.01 350.566 241.01C358.591 241.01 365.014 235.492 366.921 226.959C372.496 202.053 363.862 179.56 355.638 165.115C345.984 148.153 333.615 136.146 327.669 132.214C325.484 130.785 323.961 129.894 323.021 129.894C322.869 129.889 322.718 129.917 322.579 129.976C322.439 130.035 322.314 130.123 322.213 130.234C321.445 131.086 321.763 133.524 322.385 138.348C324.626 154.845 325.025 171.536 323.577 188.119ZM322.504 130.444C322.568 130.373 322.648 130.316 322.738 130.28C322.827 130.244 322.924 130.228 323.021 130.234C323.855 130.234 325.391 131.139 327.444 132.489C340.885 141.363 376.588 181.801 366.524 226.867C364.656 235.23 358.393 240.617 350.632 240.617C345.123 240.617 339.601 237.995 335.111 233.172C326.437 223.917 322.517 207.926 324.04 188.146C325.492 171.549 325.088 154.844 322.835 138.335C322.213 133.878 321.868 131.204 322.504 130.444Z" fill="url(#paint38_linear_371_110)"/>
<path d="M315.961 189.43C314.425 214.191 319.219 233.735 329.429 244.484C334.727 250.055 341.136 252.991 347.97 252.991C361.08 252.991 372.178 242.505 375.608 226.867C380.653 203.823 376.31 181.133 362.709 159.439C348.923 137.457 329.853 123.235 319.709 116.72C314.544 113.404 312.333 112.027 311.485 113.023C310.638 114.02 311.247 116.248 312.147 120.993C314.134 131.244 318.226 152.649 315.961 189.43ZM311.803 113.286C311.863 113.219 311.936 113.168 312.019 113.133C312.101 113.099 312.191 113.084 312.28 113.089C313.353 113.089 315.67 114.583 319.51 117.021C353.307 138.741 385.725 178.97 375.224 226.762C371.847 242.203 360.895 252.572 347.983 252.572C341.242 252.572 334.925 249.675 329.721 244.195C319.577 233.526 314.836 214.047 316.359 189.43C318.623 152.636 314.531 131.191 312.558 120.901C311.724 116.549 311.194 113.928 311.803 113.246V113.286Z" fill="url(#paint39_linear_371_110)"/>
<path d="M163.562 107.151C167.309 107.151 169.998 103.573 172.832 98.1986C177.864 88.8133 188.339 84.2779 194.02 81.8398C196.868 80.5945 197.993 80.1357 197.795 79.3624C197.596 78.589 196.947 78.4317 193.054 78.1695C181.32 77.3831 154.993 88.4594 152.001 96.7961C151.643 97.6869 151.597 98.6708 151.871 99.5904C152.144 100.51 152.722 101.312 153.51 101.869C158.026 105.565 161.045 107.112 163.615 107.112L163.562 107.151ZM152.822 97.1107C155.589 89.4949 180.062 79.0478 191.796 79.0478C192.206 79.0478 192.603 79.0478 192.974 79.0478C194.232 79.0758 195.483 79.2295 196.709 79.5066C195.713 80.0476 194.687 80.5334 193.636 80.9616C187.889 83.439 177.215 88.0661 172.05 97.7398C168.793 103.822 166.409 106.195 163.562 106.195C161.231 106.195 158.384 104.674 154.04 101.122C153.409 100.687 152.946 100.055 152.724 99.3264C152.503 98.5981 152.537 97.8172 152.822 97.1107Z" fill="url(#paint40_linear_371_110)"/>
<path d="M175.084 106.679C184.102 90.4118 200.59 84.736 213.938 81.6032C215.263 81.3017 215.342 80.6594 215.263 80.2924C214.958 77.6708 202.457 72.5718 183.797 72.5718C181.692 72.5718 179.533 72.6373 177.388 72.7684C168.873 73.2796 148.77 85.0506 141.539 93.7412C139.659 95.9958 138.811 97.8834 139.01 99.3253C139.513 102.943 142.771 104.568 146.532 106.404C150.505 108.37 155.047 110.598 157.245 115.802C158.57 118.817 160.212 120.351 162.238 120.351C165.734 120.377 170.038 115.776 175.084 106.679ZM157.868 115.566C155.577 110.152 150.942 107.872 146.85 105.853C143.247 104.07 140.135 102.537 139.685 99.2991C139.513 98.0538 140.334 96.2842 142.069 94.2C149.207 85.5881 169.045 73.9481 177.454 73.45C179.573 73.3189 181.718 73.2534 183.811 73.2534C202.152 73.2534 214.375 78.2738 214.627 80.3973C214.627 80.7381 214.111 80.9216 213.766 81.0002C200.285 84.1593 183.639 89.9006 174.488 106.39C166.846 120.062 161.192 123.378 157.881 115.566H157.868Z" fill="url(#paint41_linear_371_110)"/>
<path d="M349.321 219.093C350.01 219.093 350.645 218.608 351.135 217.665C353.718 212.867 353.665 196.312 346.831 186.205C345.931 184.895 344.646 185.078 343.679 186.73C341.11 191.108 340.038 205.081 347.03 217.167C347.772 218.451 348.54 219.093 349.321 219.093ZM344.501 187.202C344.832 186.612 345.202 186.271 345.481 186.271C345.759 186.271 345.957 186.559 346.063 186.743C352.618 196.39 352.751 212.723 350.327 217.232C350.01 217.835 349.652 218.176 349.334 218.176C349.016 218.176 348.381 217.638 347.851 216.734C341.124 205.055 342.09 191.304 344.501 187.202Z" fill="url(#paint42_linear_371_110)"/>
<path d="M435.466 259.309C436.406 260.62 438.724 261.236 443.187 261.236C445.968 261.236 449.305 261.013 453.159 260.751C457.926 260.436 463.342 260.083 468.931 260.083C486.65 260.083 498.582 263.805 506.541 271.88C513.944 277.516 518.036 286.705 521.638 294.806C526.008 304.663 529.796 313.157 538.152 313.157C539.086 313.154 540.018 313.057 540.933 312.869C541.613 312.729 542.285 312.554 542.946 312.344V311.663C542.204 311.899 541.476 312.082 540.801 312.226C539.929 312.404 539.042 312.496 538.152 312.502C530.206 312.502 526.525 304.178 522.26 294.53C518.619 286.351 514.5 277.084 507.005 271.369C498.94 263.242 486.849 259.453 468.944 259.453C463.329 259.453 457.913 259.807 453.132 260.135C449.278 260.384 445.968 260.607 443.2 260.607C439.081 260.607 436.804 260.083 436.022 258.955C435.807 258.568 435.694 258.133 435.694 257.69C435.694 257.248 435.807 256.813 436.022 256.425C444.458 234.142 451.503 205.907 450.828 197.216C449.636 181.998 442.882 167.618 436.34 153.724C428.394 136.684 420.793 120.652 425.587 107.256C432.208 88.6426 462.667 56.3313 479.221 54.1029C480.099 53.9921 480.984 53.9396 481.869 53.9456C494.715 53.9456 517.347 63.0426 542.999 78.1037V77.3435C517.374 62.3479 494.755 53.2902 481.869 53.2902C480.957 53.2827 480.045 53.3397 479.141 53.4606C462.455 55.7021 431.705 88.2755 424.978 107.046C420.091 120.692 427.692 136.867 435.744 153.999C442.26 167.841 448.987 182.168 450.179 197.256C450.775 204.871 444.458 232.267 435.426 256.242C435.179 256.717 435.053 257.246 435.059 257.78C435.066 258.315 435.206 258.84 435.466 259.309Z" fill="url(#paint43_linear_371_110)"/>
<path d="M495.338 -32.1879C485.763 -32.1879 474.653 -30.3134 462.893 -28.321C448.008 -25.8043 432.606 -23.2089 415.483 -23.2089C414.229 -23.2089 412.985 -23.2089 411.748 -23.2089L408.822 -23.2875C406.425 -23.2875 404.147 -23.4186 402.015 -23.4186C383.475 -23.4186 382.548 -13.3254 381.568 -2.62925C381.038 3.23004 380.495 9.28595 377.224 14.4112C376.059 16.2594 372.933 18.5795 369.623 21.0438C362.564 26.2871 354.565 32.2381 358.406 37.809C358.997 38.8591 359.851 39.7418 360.885 40.3728C361.919 41.0038 363.099 41.3622 364.312 41.4137C365.705 41.3668 367.066 40.9939 368.285 40.3258C374.549 37.1274 381.237 27.6765 386.613 20.0739C389.672 15.7482 392.308 12.0255 393.751 11.1735C395.179 10.4231 396.786 10.0741 398.4 10.1642H400.095C400.664 10.1642 401.247 10.1642 401.83 10.1642C403.021 10.2603 404.22 10.1209 405.357 9.75407C406.494 9.38726 407.546 8.80038 408.451 8.02757C410.954 5.77299 411.272 2.78436 411.576 0.0185661C411.854 -2.60304 412.106 -4.93627 413.814 -6.95491C418.979 -13.0632 437.096 -17.3365 449.08 -20.1547C452.616 -20.9936 455.702 -21.7014 457.927 -22.3568C467.912 -25.2285 478.253 -26.7065 488.65 -26.748C510.793 -26.748 528.499 -19.5648 542.947 -11.0184V-11.7918C528.485 -20.3382 510.779 -27.5214 488.65 -27.5214C478.172 -27.4204 467.76 -25.8718 457.715 -22.9205C455.464 -22.2782 452.418 -21.6097 448.908 -20.7314C436.116 -17.7166 418.595 -13.5876 413.285 -7.30882C411.444 -5.13288 411.166 -2.52439 410.888 0.00545502C410.583 2.83679 410.305 5.52394 407.974 7.60812C407.135 8.31845 406.163 8.8578 405.113 9.19522C404.063 9.53263 402.956 9.66147 401.856 9.57432C401.287 9.57432 400.717 9.57432 400.148 9.57432H398.426C396.691 9.48105 394.964 9.86197 393.433 10.6754C391.871 11.6061 389.328 15.1977 386.097 19.7593C381.051 26.9031 374.178 36.6948 368.02 39.8146C364.286 41.7152 361.333 40.9681 358.949 37.5075C355.466 32.4478 363.2 26.7065 370.02 21.6337C373.529 19.0121 376.562 16.7706 377.794 14.8306C381.131 9.58743 381.687 3.40044 382.23 -2.5375C383.223 -13.3647 384.071 -22.7239 402.015 -22.7239C404.147 -22.7239 406.412 -22.7239 408.809 -22.5928L411.722 -22.5141C412.967 -22.5141 414.225 -22.5141 415.483 -22.5141C432.699 -22.5141 448.087 -25.1357 463.012 -27.6394C474.732 -29.6187 485.816 -31.4931 495.338 -31.4931C499.861 -31.5601 504.372 -31.0042 508.74 -29.8415C519.56 -26.8529 531.028 -21.3868 542.947 -15.0557V-15.8421C531.028 -22.0685 519.705 -27.4559 508.925 -30.51C504.498 -31.6943 499.924 -32.2591 495.338 -32.1879Z" fill="url(#paint44_linear_371_110)"/>
<path d="M455.464 242.229C457.927 245.742 463.132 246.162 470.336 246.673L472.746 246.87C475.024 247.053 477.407 247.132 479.924 247.21C491.63 247.617 504.9 248.062 516.885 258.864L517.03 258.995C523.652 264.749 527.625 274.895 531.121 283.9C534.617 292.905 537.663 300.704 542.497 300.704H542.947V300.298C542.797 300.311 542.646 300.311 542.497 300.298C537.941 300.298 534.948 292.63 531.492 283.743C528.035 274.855 524.009 264.566 517.295 258.732L517.15 258.614C505.059 247.709 491.71 247.263 479.937 246.817C477.421 246.739 475.037 246.66 472.772 246.476L470.362 246.293C463.264 245.742 458.152 245.362 455.795 242.007C453.438 238.651 453.875 232.831 456.815 222.738C459.435 214.255 460.48 205.373 459.9 196.522C458.576 179.678 451.464 164.538 444.578 149.896C437.4 134.626 430.62 120.194 434.169 110.284C440.076 93.781 468.601 64.6549 480.414 63.095C480.879 63.0358 481.348 63.0095 481.817 63.0164C491.683 63.0164 513.998 71.1434 542.947 88.6819V88.2231C514.024 70.7239 491.71 62.6232 481.817 62.6232C481.331 62.6162 480.844 62.6425 480.361 62.7018C468.442 64.3141 439.731 93.5974 433.785 110.179C430.183 120.233 437.003 134.744 444.234 150.106C451.094 164.656 458.192 179.743 459.516 196.522C460.097 205.338 459.056 214.185 456.444 222.633C453.424 233.041 453.133 238.913 455.464 242.229Z" fill="url(#paint45_linear_371_110)"/>
<path d="M213.991 360.765C233.709 358.55 257.189 335.362 263.48 317.64C274.418 286.862 254.991 262.088 236.199 238.14C218.056 215.004 200.933 193.166 209.263 166.57C216.52 143.408 239.96 130.903 258.328 130.903C268.234 130.903 276.789 134.376 282.443 140.694C289.158 148.192 291.793 159.583 290.071 173.635C284.152 221.912 282.39 274.724 336.766 290.296C342.712 292.044 348.879 292.948 355.081 292.984C377.965 292.984 392.585 279.993 400.809 269.114C416.581 248.233 422.064 216.996 414.436 191.383C407.974 169.676 395.247 148.625 375.555 127.023C346.261 94.9081 306.387 67.2894 253.627 42.607L251.349 41.5322C229.154 31.1506 206.204 20.402 182.035 14.4772C180.605 14.1233 179.016 13.7038 177.321 13.2581C169.852 11.305 160.568 8.85383 152.596 8.85383C149.81 8.79166 147.033 9.19947 144.386 10.0598C140.942 11.2788 139.009 13.612 137.128 15.8666C135.778 17.6934 134.115 19.2726 132.215 20.5331C130.048 21.6448 127.804 22.604 125.501 23.4037C121.038 25.1078 116.403 26.8774 114.907 28.5683C112.086 31.8453 112.854 33.8115 113.582 35.7253C113.952 36.426 114.177 37.1929 114.243 37.9808C114.309 38.7687 114.215 39.5617 113.966 40.3131L113.45 41.8336C109.477 53.5129 109.477 53.5129 100.207 56.1607C98.4192 56.6719 96.2341 57.3011 93.5855 58.14C85.9708 60.5388 82.8455 64.2353 79.8261 67.8138C77.5233 70.892 74.567 73.4334 71.1652 75.2591H70.7944C66.0269 75.2591 29.8736 77.6186 27.0926 86.4141C26.3377 88.7866 27.9666 91.3689 31.9263 94.0691C35.1133 96.4883 39.0078 97.8177 43.0239 97.8574C44.1892 97.8574 45.2354 97.7525 46.2551 97.6608C47.0771 97.5614 47.9037 97.5045 48.7316 97.4903C51.645 97.4903 54.585 98.3162 58.6241 108.147C59.6173 110.572 60.3854 112.565 61.021 114.203C64.1464 122.304 64.2391 122.409 72.1849 125.764C74.1581 126.603 76.608 127.639 79.7201 129.054C89.9437 133.721 92.0361 139.03 94.6847 145.741C96.2231 149.974 98.2353 154.023 100.684 157.814C103.813 162.296 107.36 166.479 111.278 170.305C117.754 176.977 123.872 183.282 125.845 193.808C129.222 212.041 119.224 229.449 107.914 245.546C102.432 253.345 91.162 262.442 79.2301 272.063C59.0478 288.383 36.0845 306.891 36.0051 324.05C36.0051 333.841 38.4948 341.352 43.5536 346.333C49.0627 351.812 57.4322 354.486 69.1522 354.486C86.1297 354.486 107.014 348.811 125.435 343.803C140.002 339.871 152.45 336.476 160.462 336.476C161.999 336.436 163.534 336.617 165.018 337.013C172.739 339.281 178.87 344.131 184.79 348.811C192.643 355.037 200.072 360.909 210.68 360.909C211.785 360.926 212.891 360.878 213.991 360.765ZM165.283 336.24C163.713 335.817 162.089 335.622 160.462 335.663C152.331 335.663 139.75 339.071 125.183 343.03C106.815 348.011 86.0105 353.661 69.1522 353.674C57.6971 353.674 49.5262 351.052 44.2025 345.809C39.3291 340.959 36.8791 333.671 36.9321 324.128C37.0645 307.402 59.7895 288.959 79.8923 272.758C91.8109 263.097 103.187 253.974 108.749 246.057C120.164 229.79 130.255 212.186 126.825 193.625C124.826 182.837 118.615 176.44 112.046 169.663C108.136 165.877 104.589 161.738 101.452 157.302C99.0446 153.559 97.0637 149.562 95.5455 145.387C92.8174 138.492 90.6721 133.039 80.1042 128.216C76.9788 126.787 74.5289 125.751 72.5557 124.912C64.9012 121.675 64.9012 121.675 61.8818 113.862C61.2462 112.211 60.4781 110.231 59.4849 107.793C55.6312 98.4079 52.625 96.5597 48.7316 96.5597C47.8728 96.5733 47.0154 96.6302 46.1624 96.7301C45.1692 96.8218 44.1363 96.9267 43.0239 96.9267C39.1886 96.8946 35.4688 95.6244 32.4295 93.3089C28.8539 90.8446 27.3442 88.6162 27.9534 86.6762C30.3768 79.0342 64.0669 76.1898 70.7679 76.1898H71.0989L71.2049 75.7703L71.4035 76.1636C74.9805 74.2832 78.0887 71.6366 80.5015 68.4167C83.5738 64.7727 86.474 61.3515 93.8371 59.0183C96.4857 58.1925 98.6841 57.5633 100.459 57.0521C110.086 54.2994 110.205 54.1552 114.337 42.1351L114.867 40.6146C115.153 39.7574 115.265 38.8523 115.194 37.9521C115.124 37.0519 114.873 36.1746 114.456 35.3714C113.755 33.5625 113.132 32.0026 115.595 29.1451C116.92 27.6245 121.621 25.8156 125.779 24.2296C128.137 23.4115 130.434 22.4303 132.652 21.2934C134.656 19.9743 136.413 18.3198 137.844 16.4041C139.724 14.1364 141.499 12.0129 144.69 10.8725C147.254 10.0459 149.94 9.65591 152.636 9.71896C160.489 9.71896 169.706 12.1439 177.122 14.097C178.817 14.5427 180.406 14.9622 181.85 15.3161C205.926 21.2147 228.836 31.9371 250.991 42.3186L253.269 43.3804C305.91 68.0235 345.705 95.5635 374.906 127.573C394.505 149.084 407.166 170.017 413.589 191.593C421.137 216.944 415.707 247.839 400.107 268.511C392.003 279.233 377.594 292.014 355.081 292.014C348.965 291.987 342.884 291.104 337.018 289.392C283.384 274.042 285.119 221.65 290.985 173.7C292.746 159.386 290.032 147.747 283.132 140.052C277.305 133.498 268.499 129.946 258.328 129.946C239.629 129.946 215.765 142.674 208.376 166.268C199.9 193.31 217.977 216.367 235.471 238.651C254.104 262.416 273.372 286.993 262.605 317.299C256.408 334.785 233.286 357.645 213.885 359.834C212.821 359.954 211.751 360.015 210.68 360.018C200.39 360.018 193.093 354.237 185.373 348.116C179.373 343.397 173.176 338.495 165.283 336.24Z" fill="url(#paint46_linear_371_110)"/>
<path d="M335.032 -16.6285C330.543 -13.4826 324.438 -11.962 316.241 -11.962C306.653 -11.962 295.939 -14.0855 286.484 -15.8944C280.922 -16.9955 275.651 -18.0442 271.36 -18.5161C266.468 -19.0141 261.552 -19.2635 256.634 -19.2632C243.735 -19.2632 227.182 -17.533 221.633 -9.28799C219.209 -5.6964 219.117 -1.20035 221.328 4.10841C222.374 6.58582 225.076 7.94906 227.685 9.24676C229.724 10.0649 231.559 11.3128 233.062 12.9039C234.439 15.1018 235.462 17.4988 236.094 20.0084C237.167 23.4296 238.266 26.9557 240.769 29.0399C243.752 31.5741 247.579 32.9238 251.509 32.8281C254.475 32.7241 257.424 32.3378 260.316 31.6746C263.163 31.0184 266.068 30.6365 268.99 30.5342C271.518 30.4835 274.02 31.0508 276.273 32.1858C281.571 34.8074 283.756 38.4777 285.901 41.9775C288.695 46.5391 291.331 50.8385 300.018 52.8572C318.214 57.0648 323.193 61.4692 335.231 72.0998C336.78 73.4106 338.449 74.9442 340.277 76.5303C344.252 80.2035 347.805 84.3006 350.871 88.747C353.634 92.6878 356.735 96.3849 360.141 99.797C363.894 103.262 368.269 106 373.04 107.872C378.522 110.349 383.7 112.682 388.402 120.665L389.143 121.976C395.063 132.095 401.062 141.467 404.717 141.467C405.004 141.471 405.288 141.412 405.549 141.294C405.81 141.176 406.041 141.003 406.227 140.786C407.551 139.357 407.908 135.543 407.326 129.12C406.981 125.371 404.24 122.002 401.578 118.751C398.718 115.251 396.016 111.948 396.175 108.265C396.374 103.874 399.049 101.711 401.883 99.4431C404.164 97.8664 406.042 95.7836 407.366 93.361C410.385 86.925 411.113 81.1705 411.828 75.5996C412.808 67.8397 413.735 60.5254 420.741 52.2411C433.757 37.1167 451.004 26.1433 470.309 20.7032C476.261 18.9322 482.436 18.0055 488.651 17.9505C508.515 17.9505 522.712 28.6335 537.782 39.9326L542.947 43.7864V42.6198C541.398 41.4794 539.861 40.3259 538.338 39.1855C523.149 27.7815 508.793 17.0198 488.651 17.0198C482.37 17.0726 476.128 18.0038 470.111 19.7856C450.632 25.2724 433.232 36.347 420.105 51.6119C412.914 60.0928 411.974 67.5513 410.968 75.4423C410.266 80.9477 409.551 86.6366 406.597 92.9285C405.328 95.2223 403.537 97.1923 401.366 98.6829C398.506 101.003 395.526 103.389 395.314 108.186C395.142 112.184 398.082 115.789 400.929 119.262C403.499 122.408 406.147 125.659 406.465 129.146C407.154 136.683 406.386 139.265 405.617 140.104C405.514 140.223 405.386 140.319 405.242 140.385C405.098 140.45 404.942 140.484 404.783 140.484C401.128 140.484 393.341 127.154 390.004 121.452L389.276 120.141C384.429 111.896 379.105 109.51 373.49 106.967C368.82 105.141 364.532 102.475 360.843 99.1023C357.471 95.7233 354.397 92.066 351.652 88.1702C348.541 83.6652 344.934 79.5152 340.899 75.7962C339.072 74.2233 337.403 72.7421 335.853 71.3788C323.683 60.6302 318.638 56.1866 300.23 51.9265C291.913 49.9996 289.384 45.8444 286.696 41.4401C284.484 37.8354 282.206 34.0996 276.697 31.2945C274.309 30.1032 271.664 29.5049 268.99 29.5511C266.006 29.6552 263.039 30.0414 260.13 30.7046C257.301 31.3599 254.413 31.7418 251.509 31.845C247.796 31.9408 244.18 30.6651 241.365 28.2665C239.074 26.3527 238.001 23.0233 236.981 19.6807C236.327 17.0685 235.254 14.5769 233.803 12.3009C232.227 10.5783 230.275 9.23351 228.095 8.36852C225.447 7.05772 223.09 5.86488 222.176 3.68895C220.083 -1.31831 220.15 -5.48667 222.388 -8.84233C227.685 -16.7071 243.947 -18.4112 256.621 -18.4112C261.486 -18.4121 266.348 -18.1671 271.188 -17.6771C275.452 -17.2184 280.697 -16.1828 286.245 -15.0555C295.741 -13.1811 306.494 -11.0445 316.174 -11.0445C324.518 -11.0445 330.848 -12.6174 335.496 -15.8813C347.084 -23.9821 343.76 -36.2119 340.555 -48.0485C337.112 -60.6846 333.562 -73.7533 347.838 -82.2735C349.92 -83.3871 352.268 -83.9216 354.632 -83.8203C363.174 -83.8203 375.198 -79.1931 386.826 -74.7233C396.957 -70.7909 406.518 -67.16 412.742 -67.0158H415.391C428.766 -67.0158 442.287 -69.2966 455.358 -71.5118C468.429 -73.7271 481.91 -75.9948 495.246 -75.9948C503.939 -76.0761 512.601 -74.9464 520.977 -72.6391C528.479 -70.465 535.819 -67.7801 542.947 -64.6039V-65.6132C535.926 -68.7138 528.701 -71.3414 521.321 -73.478C512.864 -75.811 504.117 -76.9539 495.339 -76.873C481.923 -76.873 468.389 -74.5791 455.305 -72.377C442.221 -70.1748 428.819 -67.894 415.483 -67.894C414.57 -67.894 413.696 -67.894 412.835 -67.894C406.77 -68.0382 397.274 -71.6822 387.236 -75.5491C375.516 -80.0452 363.399 -84.7247 354.698 -84.7247C352.165 -84.8386 349.649 -84.258 347.428 -83.0469C332.556 -74.1597 336.198 -60.7632 339.72 -47.7994C342.978 -35.7531 346.064 -24.3622 335.032 -16.6285Z" fill="url(#paint47_linear_371_110)"/>
</g>
<defs>
<linearGradient id="paint0_linear_371_110" x1="-49.3899" y1="176.385" x2="16.8759" y2="176.385" gradientUnits="userSpaceOnUse">
<stop stop-color="white"/>
<stop offset="1" stop-color="white" stop-opacity="0"/>
</linearGradient>
<linearGradient id="paint1_linear_371_110" x1="-48.6151" y1="181.619" x2="31.9229" y2="181.619" gradientUnits="userSpaceOnUse">
<stop stop-color="white"/>
<stop offset="1" stop-color="white" stop-opacity="0"/>
</linearGradient>
<linearGradient id="paint2_linear_371_110" x1="-42.8356" y1="-6.74297" x2="144.161" y2="-6.74297" gradientUnits="userSpaceOnUse">
<stop stop-color="white"/>
<stop offset="1" stop-color="white" stop-opacity="0"/>
</linearGradient>
<linearGradient id="paint3_linear_371_110" x1="-50.1318" y1="166.04" x2="2.46693" y2="166.04" gradientUnits="userSpaceOnUse">
<stop stop-color="white"/>
<stop offset="1" stop-color="white" stop-opacity="0"/>
</linearGradient>
<linearGradient id="paint4_linear_371_110" x1="-43.9399" y1="-5.01241" x2="122.716" y2="-5.01242" gradientUnits="userSpaceOnUse">
<stop stop-color="white"/>
<stop offset="1" stop-color="white" stop-opacity="0"/>
</linearGradient>
<linearGradient id="paint5_linear_371_110" x1="-46.5066" y1="-1.99746" x2="72.8694" y2="-1.99746" gradientUnits="userSpaceOnUse">
<stop stop-color="white"/>
<stop offset="1" stop-color="white" stop-opacity="0"/>
</linearGradient>
<linearGradient id="paint6_linear_371_110" x1="-48.0067" y1="-0.262361" x2="43.738" y2="-0.262364" gradientUnits="userSpaceOnUse">
<stop stop-color="white"/>
<stop offset="1" stop-color="white" stop-opacity="0"/>
</linearGradient>
<linearGradient id="paint7_linear_371_110" x1="124.553" y1="-59.6095" x2="219.042" y2="-59.6095" gradientUnits="userSpaceOnUse">
<stop stop-color="white"/>
<stop offset="1" stop-color="white" stop-opacity="0"/>
</linearGradient>
<linearGradient id="paint8_linear_371_110" x1="25.7024" y1="222.354" x2="97.1033" y2="222.354" gradientUnits="userSpaceOnUse">
<stop stop-color="white"/>
<stop offset="1" stop-color="white" stop-opacity="0"/>
</linearGradient>
<linearGradient id="paint9_linear_371_110" x1="-49.2019" y1="0.765185" x2="20.5256" y2="0.765182" gradientUnits="userSpaceOnUse">
<stop stop-color="white"/>
<stop offset="1" stop-color="white" stop-opacity="0"/>
</linearGradient>
<linearGradient id="paint10_linear_371_110" x1="-47.9573" y1="180.688" x2="44.6959" y2="180.688" gradientUnits="userSpaceOnUse">
<stop stop-color="white"/>
<stop offset="1" stop-color="white" stop-opacity="0"/>
</linearGradient>
<linearGradient id="paint11_linear_371_110" x1="11.1312" y1="239.079" x2="109.247" y2="239.079" gradientUnits="userSpaceOnUse">
<stop stop-color="white"/>
<stop offset="1" stop-color="white" stop-opacity="0"/>
</linearGradient>
<linearGradient id="paint12_linear_371_110" x1="0.555958" y1="212.043" x2="125.402" y2="212.043" gradientUnits="userSpaceOnUse">
<stop stop-color="white"/>
<stop offset="1" stop-color="white" stop-opacity="0"/>
</linearGradient>
<linearGradient id="paint13_linear_371_110" x1="-46.9844" y1="178.223" x2="63.5915" y2="178.223" gradientUnits="userSpaceOnUse">
<stop stop-color="white"/>
<stop offset="1" stop-color="white" stop-opacity="0"/>
</linearGradient>
<linearGradient id="paint14_linear_371_110" x1="136.384" y1="-64.0712" x2="197.723" y2="-64.0712" gradientUnits="userSpaceOnUse">
<stop stop-color="white"/>
<stop offset="1" stop-color="white" stop-opacity="0"/>
</linearGradient>
<linearGradient id="paint15_linear_371_110" x1="60.814" y1="219.352" x2="79.3881" y2="219.352" gradientUnits="userSpaceOnUse">
<stop stop-color="white"/>
<stop offset="1" stop-color="white" stop-opacity="0"/>
</linearGradient>
<linearGradient id="paint16_linear_371_110" x1="79.5057" y1="167.998" x2="445.48" y2="167.998" gradientUnits="userSpaceOnUse">
<stop stop-color="white"/>
<stop offset="1" stop-color="white" stop-opacity="0"/>
</linearGradient>
<linearGradient id="paint17_linear_371_110" x1="499.565" y1="155.465" x2="547.308" y2="155.465" gradientUnits="userSpaceOnUse">
<stop stop-color="white"/>
<stop offset="1" stop-color="white" stop-opacity="0"/>
</linearGradient>
<linearGradient id="paint18_linear_371_110" x1="481.662" y1="153.859" x2="551.038" y2="153.859" gradientUnits="userSpaceOnUse">
<stop stop-color="white"/>
<stop offset="1" stop-color="white" stop-opacity="0"/>
</linearGradient>
<linearGradient id="paint19_linear_371_110" x1="256.746" y1="1.91512" x2="580.666" y2="1.9151" gradientUnits="userSpaceOnUse">
<stop stop-color="white"/>
<stop offset="1" stop-color="white" stop-opacity="0"/>
</linearGradient>
<linearGradient id="paint20_linear_371_110" x1="491.018" y1="154.589" x2="549.76" y2="154.589" gradientUnits="userSpaceOnUse">
<stop stop-color="white"/>
<stop offset="1" stop-color="white" stop-opacity="0"/>
</linearGradient>
<linearGradient id="paint21_linear_371_110" x1="447.901" y1="161.863" x2="555.518" y2="161.863" gradientUnits="userSpaceOnUse">
<stop stop-color="white"/>
<stop offset="1" stop-color="white" stop-opacity="0"/>
</linearGradient>
<linearGradient id="paint22_linear_371_110" x1="470.937" y1="154.483" x2="552.437" y2="154.483" gradientUnits="userSpaceOnUse">
<stop stop-color="white"/>
<stop offset="1" stop-color="white" stop-opacity="0"/>
</linearGradient>
<linearGradient id="paint23_linear_371_110" x1="329.324" y1="-1.66808" x2="571.115" y2="-1.6681" gradientUnits="userSpaceOnUse">
<stop stop-color="white"/>
<stop offset="1" stop-color="white" stop-opacity="0"/>
</linearGradient>
<linearGradient id="paint24_linear_371_110" x1="457.456" y1="155.462" x2="554.213" y2="155.462" gradientUnits="userSpaceOnUse">
<stop stop-color="white"/>
<stop offset="1" stop-color="white" stop-opacity="0"/>
</linearGradient>
<linearGradient id="paint25_linear_371_110" x1="216.31" y1="274.31" x2="543.427" y2="274.31" gradientUnits="userSpaceOnUse">
<stop stop-color="white"/>
<stop offset="1" stop-color="white" stop-opacity="0"/>
</linearGradient>
<linearGradient id="paint26_linear_371_110" x1="416.113" y1="166.58" x2="559.661" y2="166.58" gradientUnits="userSpaceOnUse">
<stop stop-color="white"/>
<stop offset="1" stop-color="white" stop-opacity="0"/>
</linearGradient>
<linearGradient id="paint27_linear_371_110" x1="237.395" y1="273.642" x2="529.926" y2="273.642" gradientUnits="userSpaceOnUse">
<stop stop-color="white"/>
<stop offset="1" stop-color="white" stop-opacity="0"/>
</linearGradient>
<linearGradient id="paint28_linear_371_110" x1="238.539" y1="187.124" x2="264.883" y2="187.124" gradientUnits="userSpaceOnUse">
<stop stop-color="white"/>
<stop offset="1" stop-color="white" stop-opacity="0"/>
</linearGradient>
<linearGradient id="paint29_linear_371_110" x1="158.38" y1="270.232" x2="217.337" y2="270.232" gradientUnits="userSpaceOnUse">
<stop stop-color="white"/>
<stop offset="1" stop-color="white" stop-opacity="0"/>
</linearGradient>
<linearGradient id="paint30_linear_371_110" x1="172.61" y1="272.168" x2="204.461" y2="272.168" gradientUnits="userSpaceOnUse">
<stop stop-color="white"/>
<stop offset="1" stop-color="white" stop-opacity="0"/>
</linearGradient>
<linearGradient id="paint31_linear_371_110" x1="133.552" y1="98.6929" x2="253.321" y2="98.6929" gradientUnits="userSpaceOnUse">
<stop stop-color="white"/>
<stop offset="1" stop-color="white" stop-opacity="0"/>
</linearGradient>
<linearGradient id="paint32_linear_371_110" x1="121.737" y1="102.542" x2="298.589" y2="102.542" gradientUnits="userSpaceOnUse">
<stop stop-color="white"/>
<stop offset="1" stop-color="white" stop-opacity="0"/>
</linearGradient>
<linearGradient id="paint33_linear_371_110" x1="102.051" y1="169.708" x2="426.988" y2="169.708" gradientUnits="userSpaceOnUse">
<stop stop-color="white"/>
<stop offset="1" stop-color="white" stop-opacity="0"/>
</linearGradient>
<linearGradient id="paint34_linear_371_110" x1="119.815" y1="240.984" x2="246.1" y2="240.984" gradientUnits="userSpaceOnUse">
<stop stop-color="white"/>
<stop offset="1" stop-color="white" stop-opacity="0"/>
</linearGradient>
<linearGradient id="paint35_linear_371_110" x1="138.26" y1="261.303" x2="231.634" y2="261.303" gradientUnits="userSpaceOnUse">
<stop stop-color="white"/>
<stop offset="1" stop-color="white" stop-opacity="0"/>
</linearGradient>
<linearGradient id="paint36_linear_371_110" x1="334.396" y1="187.507" x2="366.485" y2="187.507" gradientUnits="userSpaceOnUse">
<stop stop-color="white"/>
<stop offset="1" stop-color="white" stop-opacity="0"/>
</linearGradient>
<linearGradient id="paint37_linear_371_110" x1="349.233" y1="-1.53886" x2="568.475" y2="-1.53887" gradientUnits="userSpaceOnUse">
<stop stop-color="white"/>
<stop offset="1" stop-color="white" stop-opacity="0"/>
</linearGradient>
<linearGradient id="paint38_linear_371_110" x1="324.478" y1="178.771" x2="374.52" y2="178.771" gradientUnits="userSpaceOnUse">
<stop stop-color="white"/>
<stop offset="1" stop-color="white" stop-opacity="0"/>
</linearGradient>
<linearGradient id="paint39_linear_371_110" x1="314.933" y1="174.414" x2="385.908" y2="174.414" gradientUnits="userSpaceOnUse">
<stop stop-color="white"/>
<stop offset="1" stop-color="white" stop-opacity="0"/>
</linearGradient>
<linearGradient id="paint40_linear_371_110" x1="154.364" y1="90.8957" x2="203.544" y2="90.8957" gradientUnits="userSpaceOnUse">
<stop stop-color="white"/>
<stop offset="1" stop-color="white" stop-opacity="0"/>
</linearGradient>
<linearGradient id="paint41_linear_371_110" x1="143.398" y1="93.5885" x2="224.758" y2="93.5885" gradientUnits="userSpaceOnUse">
<stop stop-color="white"/>
<stop offset="1" stop-color="white" stop-opacity="0"/>
</linearGradient>
<linearGradient id="paint42_linear_371_110" x1="342.353" y1="200.188" x2="354.075" y2="200.188" gradientUnits="userSpaceOnUse">
<stop stop-color="white"/>
<stop offset="1" stop-color="white" stop-opacity="0"/>
</linearGradient>
<linearGradient id="paint43_linear_371_110" x1="430.358" y1="167.599" x2="557.844" y2="167.599" gradientUnits="userSpaceOnUse">
<stop stop-color="white"/>
<stop offset="1" stop-color="white" stop-opacity="0"/>
</linearGradient>
<linearGradient id="paint44_linear_371_110" x1="368.148" y1="0.184305" x2="565.983" y2="0.184292" gradientUnits="userSpaceOnUse">
<stop stop-color="white"/>
<stop offset="1" stop-color="white" stop-opacity="0"/>
</linearGradient>
<linearGradient id="paint45_linear_371_110" x1="439.168" y1="167.349" x2="556.624" y2="167.349" gradientUnits="userSpaceOnUse">
<stop stop-color="white"/>
<stop offset="1" stop-color="white" stop-opacity="0"/>
</linearGradient>
<linearGradient id="paint46_linear_371_110" x1="49.5421" y1="163.712" x2="466.376" y2="163.712" gradientUnits="userSpaceOnUse">
<stop stop-color="white"/>
<stop offset="1" stop-color="white" stop-opacity="0"/>
</linearGradient>
<linearGradient id="paint47_linear_371_110" x1="238.448" y1="14.7638" x2="583.077" y2="14.7638" gradientUnits="userSpaceOnUse">
<stop stop-color="white"/>
<stop offset="1" stop-color="white" stop-opacity="0"/>
</linearGradient>
</defs>
</svg>
